/* XPM */
static char *_845ffebe3d04be4d3701344a4cc729cskYMtGorkOk0skLp[] = {
/* columns rows colors chars-per-pixel */
"64 64 145 2 ",
"   c #004700",
".  c #005500",
"X  c #005D00",
"o  c #185B0E",
"O  c #006300",
"+  c #006C00",
"@  c #16690A",
"#  c #007100",
"$  c #007A00",
"%  c #007F00",
"&  c #227B10",
"*  c #1D7C59",
"=  c #216F68",
"-  c #2A7A63",
";  c #31667C",
":  c #3B6C7C",
">  c #5C6B6D",
",  c #43617A",
"<  c #506673",
"1  c #437777",
"2  c #4A7170",
"3  c #687167",
"4  c #607B69",
"5  c #747661",
"6  c #817B5A",
"7  c #008900",
"8  c #008D00",
"9  c #118609",
"0  c #009B00",
"q  c #308D1B",
"w  c #389D1A",
"e  c #00A900",
"r  c #00B700",
"t  c #05B90F",
"y  c #11BE09",
"u  c #0AAD1E",
"i  c #22A710",
"p  c #2DA815",
"a  c #30A31B",
"s  c #22B711",
"d  c #33B01A",
"f  c #13943C",
"g  c #0EA02D",
"h  c #43AE1F",
"j  c #488429",
"k  c #609937",
"l  c #669A34",
"z  c #77933D",
"x  c #719E39",
"c  c #73993E",
"v  c #44A923",
"b  c #4DAC2E",
"n  c #55A12B",
"m  c #48B029",
"M  c #4DA73B",
"N  c #40BD31",
"B  c #4DBB3B",
"V  c #60BD37",
"C  c #7CB93D",
"Z  c #00C500",
"A  c #0DC30A",
"S  c #16CB0A",
"D  c #1AC214",
"F  c #22CF10",
"G  c #27C01E",
"H  c #2DD215",
"J  c #43C41F",
"K  c #43D81F",
"L  c #4FCE25",
"P  c #4FDC25",
"I  c #5ADF2A",
"U  c #54CD33",
"Y  c #5FD339",
"T  c #76C339",
"R  c #67DD34",
"E  c #6BD832",
"W  c #6AD33D",
"Q  c #65E22F",
"!  c #18884A",
"~  c #298455",
"^  c #3BAD42",
"/  c #3E8569",
"(  c #7B8557",
")  c #7C805C",
"_  c #70915F",
"`  c #52B44C",
"'  c #67B84F",
"]  c #7CAB57",
"[  c #74B659",
"{  c #78B158",
"}  c #548C6D",
"|  c #5C9668",
" . c #4B8172",
".. c #5D817D",
"X. c #7D9976",
"o. c #64A163",
"O. c #888C45",
"+. c #99854E",
"@. c #958A4F",
"#. c #8D9A47",
"$. c #8D8054",
"%. c #8D9552",
"&. c #899B53",
"*. c #919050",
"=. c #A09353",
"-. c #88A444",
";. c #84A054",
":. c #80A655",
">. c #AEAE5D",
",. c #B5BB62",
"<. c #8FC252",
"1. c #8FD852",
"2. c #9EC77F",
"3. c #A7D660",
"4. c #B1DA7D",
"5. c #A7E560",
"6. c #BFEB6D",
"7. c #C2D66C",
"8. c #C9E471",
"9. c #C4EC7C",
"0. c #D7FF7B",
"q. c #2B5786",
"w. c #375C80",
"e. c #336281",
"r. c #3E6A85",
"t. c #346A93",
"y. c #3D7CA1",
"u. c #517C84",
"i. c #339583",
"p. c #558794",
"a. c #648F82",
"s. c #77A281",
"d. c #63A29E",
"f. c #458FAE",
"g. c #4EA2BC",
"h. c #5AA7B6",
"j. c #55B1B2",
"k. c #61B4BB",
"l. c #57B4C9",
"z. c #5FD6C6",
"x. c #60C7D7",
"c. c #68DAE4",
"v. c #71ECF2",
"b. c #7AFFFF",
"n. c #8BB480",
/* pixels */
"Q Q Q Q Q Q Q Q Q Q Q Q Q Q K Z Z Z Z Z Z Z Z Z Z Z Z Z Z Z Z Z Z Z Z Z Z Z 0                                                   ",
"Q Q Q Q Q Q Q Q Q Q Q Q F F S Z Z Z Z Z Z Z Z Z Z Z Z Z Z Z Z Z Z Z Z Z # # O                                                   ",
"Q Q Q Q Q Q Q Q Q Q I K Z Z Z Z Z Z Z Z Z Z Z Z Z Z Z Z Z Z Z Z Z Z r 0                                                         ",
"Q Q Q Q Q Q Q Q Q Q K Z Z Z Z Z Z Z Z Z Z Z Z Z Z Z Z Z Z Z Z Z Z Z 0                                                           ",
"Q Q Q Q Q Q Q Q Q Q K Z Z Z Z Z Z Z Z Z Z Z Z Z Z Z Z Z Z Z Z Z Z Z 0                                                           ",
"Q Q Q Q Q Q Q Q Q Q K Z Z Z Z Z Z Z Z Z Z Z Z Z Z Z Z Z Z Z Z Z Z 8 O                                                           ",
"Q Q Q Q Q Q Y ` ` ` ^ g Z Z Z Z Z Z Z Z Z Z Z Z Z Z Z Z Z Z Z Z 0 O                                                             ",
"Q Q Q Q Q Q ` q.q.q.q.q.Z Z Z Z Z Z Z Z Z Z Z Z Z Z Z Z Z Z Z Z                                                                 ",
"Q -.-.Q Q / f.b.b.b.b.b.q.g Z Z Z Z Z Z Z Z Z Z Z Z Z Z Z Z 0                     0 Z Z Z Z Z Z Z Z Z Z                         ",
"Q -.( / / j.c.b.b.b.b.b.q.= f Z l s Z Z Z Z Z Z Z Z Z Z Z Z 0             % 0 0 0 r Z Z Z Z Z Z Z Z Z Z 0 p h h h @             ",
"Q -.5 q.f.c.b.b.b.z.z.b.f.f.i.g +.d Z Z Z Z Z Z Z Z Z Z Z e %       . # # e Z Z Z Z Z Z Z Z Z Z Z s s Z Z H P Q Q w & &         ",
"Q -.5 q.b.b.b.b.b.~ ~ b.b.b.x.q.+.d Z Z Z Z Z Z Z Z Z Z Z #         # Z Z Z Z Z Z Z Z Z Z Z Z Z Z l l Z Z Z F Q Q Q Q Q         ",
"Q -.5 q.b.b.b.b.b.b.b.b.b.b.x.q.q.g Z Z Z Z Z Z Z Z Z Z Z #     Z Z Z Z Z Z Z Z Z Z Z Z Z Z Z Z Z l l Z Z Z F Q Q Q Q Q +.+.-.Q ",
"Q -.$.5 f.f.f.f.f.f.l.b.b.b.v.x.q.g Z Z Z Z Z Z Z Z Z Z Z # O 0 l s Z Z Z Z Z Z Z v l l Z Z Z Z Z l O.l Z Z F Q Q Q Q Q +.+.-.Q ",
"Q C #.+.< < 2 / / ; f.b.b.b.b.b.q.! u Z Z Z y d Z Z Z Z Z 8 9 d +.d Z Z Z Z Z Z d z O.l Z Z Z Z Z l +.+.Z Z F Q Q Q Q Q +.+.-.Q ",
"Q Q T +.+.+.-.Q Q / f.b.b.b.b.b.q.q.* Z Z Z d +.Z Z Z Z Z Z d +.+.d Z Z Z Z Z Z +.+.l Z Z Z Z Z Z l +.+.Z Z F Q Q Q Q Q +.+.-.Q ",
"Q Q Q Q Q -.+.+.Q / q.q.b.b.b.b.b.f.q.q.Z Z d +.+.d Z Z Z Z d +.+.+.l Z Z l +.+.+.+.l Z Z Z Z Z Z Z d +.+.d F Q Q Q Q Q +.+.-.Q ",
"Q Q Q Q Q -.+.+.-.( > q.f.c.b.b.b.c.g.q.Z Z y d +.d Z Z Z Z d +.+.+.l Z Z l +.+.+.n s Z Z Z Z Z Z Z d +.+.z x -.Q Q Q Q +.+.-.Q ",
"J J L Q Q -.+.+.+.+.6 < q.x.b.b.b.b.c.f.g t Z Z +.n s Z Z Z d +.+.+.l Z d z +.+.+.d Z Z Z Z Z Z Z Z d +.+.+.+.+.T E E T +.+.-.Q ",
"7 7 i Q Q -.+.+.+.+.+.+.q.x.b.b.b.b.b.b.q.g Z Z +.+.l Z Z Z d +.+.+.l Z +.+.+.+.+.d Z Z Z Z Z Z Z Z d +.+.+.+.+.+.T T +.+.+.-.Q ",
"7 7 7 7 7 7 7 7 +.+.+.+.q.x.b.b.b.b.b.b.q.g Z Z Z l +.+.Z l +.+.+.+.+.+.+.+.+.+.+.d Z Z Z Z Z Z Z K Q Q +.+.+.+.+.T T +.+.T Q Q ",
"M M M M M M M M :.*.+.+.q.y.l.b.b.b.b.b.x.i.f Z Z s n +.l O.+.+.+.+.+.+.+.+.+.+.d y Z Z Z Z Z Z Z K Q Q +.+.+.+.+.#.#.+.+.T Q Q ",
"[ [ [ [ [ [ [ [ [ %.+.+.< w.f.b.b.b.b.b.b.l.i.g G A s l +.+.+.+.+.+.+.+.+.+.O.l Z Z Z Z Z Z Z Z G U W W +.+.+.+.+.+.+.+.+.T R W ",
"[ [ [ [ [ [ [ [ [ %.+.+.+.< f.b.b.b.b.b.b.b.x.q.[ G Z Z +.+.+.+.+.+.+.+.+.+.l Z Z Z Z Z Z Z Z Z [ [ [ [ +.+.+.+.+.+.+.+.+.T W [ ",
"[ [ [ [ [ [ [ [ [ %.+.+.+.< q.q.b.b.b.b.b.b.b.b.q.g Z Z +.+.+.+.+.+.+.+.+.d Z Z Z Z Z Z Z B [ [ [ [ [ [ [ %.+.+.+.+.+.+.+.:.[ [ ",
"[ [ [ [ [ [ [ [ %.@.+.+.+._  .q.b.b.b.b.b.b.b.b.x.i.f Z d d n +.+.+.z d d y D B B B B B B ' [ [ [ [ [ [ [ %.+.+.+.+.+.+.+.:.[ [ ",
"[ [ [ [ [ [ [ [ +.+.+.+.+.:.o.1 x.v.b.b.b.b.b.b.b.f.- G G G b +.+.+.c G G G N [ [ [ [ [ [ [ [ [ [ [ [ [ [ ;.*.+.+.+.+.+.+.:.[ [ ",
"[ [ [ [ [ [ [ [ +.+.+.+.+.:.[ [ q.x.b.b.b.b.b.b.b.f.1 [ [ [ :.+.+.+.%.[ [ [ [ [ [ [ [ [ [ [ [ [ [ [ [ [ [ [ :.+.+.+.+.+.+.:.[ [ ",
"[ [ [ [ [ [ [ [ +.+.+.+.+.:.[ [ q.x.b.b.b.b.b.b.b.b.x.q.q.| :.+.+.+.%.[ [ [ [ [ [ [ [ [ [ [ [ [ [ [ [ [ [ [ :.+.+.+.+.+.+.:.[ [ ",
"[ [ [ [ [ [ [ [ +.+.+.+.+.:.[ [ q.y.l.b.b.b.b.b.b.b.v.x.q.: 4 +.+.+.) 1 1 1 1 1 1 1 1 1 [ [ [ [ [ [ [ [ [ [ { :.+.+.+.+.+.*.;.[ ",
"[ [ [ [ [ [ [ [ +.+.+.+.+.:.[ [ 1 e.y.x.b.b.b.b.b.b.b.b.f.t.< +.+.6 > q.f.f.f.f.f.f.y.q.| | o.[ [ [ [ [ [ [ [ [ +.+.+.+.+.+.%.[ ",
"[ [ [ [ [ [ [ [ +.+.+.+.+.:.[ [ [ 1 q.q.b.b.b.b.b.b.b.b.b.f.< +.+.< q.q.b.b.b.b.b.b.x.q.q.q.1 [ [ [ [ [ [ [ [ [ +.+.+.+.+.+.%.[ ",
"[ [ [ [ [ [ :.+.+.+.+.+.+.:.[ [ [ 1 q.q.b.b.b.b.b.b.b.b.b.b.x.q.q.x.b.b.b.b.b.b.b.b.b.b.b.f.q.q.[ [ [ [ [ [ [ [ +.+.+.+.+.+.%.[ ",
"[ [ [ [ [ [ :.+.+.+.+.+.+.:.[ [ [ 1 q.q.b.b.b.b.b.b.b.b.b.b.v.x.x.v.b.b.b.b.b.b.b.b.b.b.b.c.g.q.1 1 } [ [ [ [ [ +.+.+.+.+.+.%.[ ",
"[ [ [ [ [ [ :.+.+.+.+.+.+.&.] [ [ } : q.x.v.b.b.b.b.b.b.b.b.b.b.b.b.b.b.b.b.b.b.b.b.b.b.b.b.c.f.f.t.1 [ [ [ [ [ +.+.+.+.+.+.%.[ ",
"[ [ [ [ [ [ :.+.+.+.+.+.+.+.%.[ [ [ | q.q.x.b.b.b.b.b.b.b.b.b.b.b.b.b.b.b.b.b.b.b.b.b.b.b.b.b.b.b.f.1 [ [ [ [ [ +.+.+.+.+.+.%.[ ",
"0.0.0.0.0.0.7.+.+.+.+.+.+.+.>.0.0.0.0.0.q.q.f.b.b.b.b.b.b.b.b.b.b.b.b.b.b.b.b.b.b.b.b.b.b.b.b.b.b.b.x.q.0.0.0.0.+.+.+.+.+.+.>.0.",
"0.0.0.0.0.0.7.+.+.+.+.+.+.+.>.0.0.0.0.0.q.q.f.b.b.b.b.b.b.b.b.b.b.b.b.b.b.b.b.b.b.b.b.b.b.b.b.b.b.b.v.x.a.a.n.0.+.+.+.+.+.+.=.>.",
"0.0.0.0.0.8.,.+.+.+.+.+.+.+.>.0.0.0.9.2.q.y.l.b.b.b.b.b.b.b.b.b.b.b.b.b.b.b.b.b.b.b.b.b.b.b.b.b.b.b.b.b.f.f.d.2.5 $.+.+.+.+.+.+.",
"0.0.0.0.0.>.+.+.+.+.+.+.+.+.>.0.0.0.2.q.q.x.b.b.b.b.b.b.b.b.b.b.b.b.b.b.b.b.b.b.b.b.b.b.b.b.b.b.b.b.b.b.b.b.x.q.q.5 +.+.+.+.+.+.",
"0.0.0.0.0.>.+.+.+.+.+.+.+.+.+.+.0.0.2.q.b.b.b.b.b.b.b.b.b.b.b.b.b.b.b.b.b.b.b.b.b.b.b.b.b.b.b.b.b.b.b.b.b.b.b.b.q.q.< +.+.+.+.+.",
"0.0.0.0.0.8.7.7.+.+.+.+.+.+.+.+.0.n.u.q.b.b.b.b.b.b.b.b.b.b.b.b.b.b.b.b.b.b.b.b.b.b.b.b.b.b.b.b.b.b.b.b.b.b.b.b.x.x.h.< < < 3 +.",
"0.0.0.0.0.0.0.0.>.=.+.+.>.>.>.>.0.a.t.f.b.b.b.b.b.b.b.b.b.b.b.b.b.b.b.b.b.b.b.b.b.b.b.b.b.b.b.b.b.b.b.b.b.b.b.b.b.b.c.f.f.f.p.5 ",
"0.0.0.0.0.0.0.0.0.>.+.+.0.0.0.0.0.a.f.b.b.b.b.b.b.b.b.b.b.b.b.b.b.b.b.b.b.b.b.b.b.b.b.b.b.b.b.b.b.b.b.b.b.b.b.b.b.b.b.b.b.b.x.q.",
"0.0.0.0.0.0.0.0.0.0.0.0.0.0.0.0.q.x.b.b.b.b.b.b.b.b.b.b.b.b.b.b.b.b.b.b.b.b.b.b.b.b.b.b.b.b.b.b.b.b.b.b.b.b.b.b.b.b.b.b.b.b.b.b.",
"0.0.0.0.0.0.0.0.0.0.0.0.0.0.0.0.q.x.b.b.b.b.b.b.b.b.b.b.b.b.b.b.b.b.b.b.b.b.b.b.b.b.b.b.b.b.b.b.b.b.b.b.b.b.c.f.f.f.f.f.f.f.f.f.",
"0.0.0.0.0.0.0.0.0.0.0.0.0.0.0.0.q.x.b.b.b.b.v.x.b.b.b.b.b.c.c.b.b.b.b.b.b.b.b.b.b.b.b.b.b.b.b.b.b.b.b.b.b.c.k.a.a.a.a.a.a.a.a.a.",
"0.0.0.0.0.0.0.0.0.0.0.0.0.0.0.0.q.x.b.b.b.b.x.q.b.b.b.b.b.f.f.b.b.b.b.b.b.b.b.b.b.b.b.b.b.b.b.b.b.b.b.b.b.f.a.0.0.0.0.0.0.0.0.0.",
"0.0.0.0.0.0.0.0.0.0.0.0.0.0.0.0.q.x.b.b.b.f.q.q.b.b.b.b.b.f.q.q.q.q.q.q.q.q.f.b.b.b.b.b.q.q.q.q.b.b.b.b.b.f.a.0.0.0.0.0.0.0.0.0.",
"0.0.0.0.0.0.0.0.0.0.0.0.0.0.0.0.2.d.l.b.b.c.g.q.b.b.b.b.b.f., 5 5 5 5 5 5 , f.b.b.b.b.b.q.s.s.q.b.b.b.b.b.f.a.0.0.0.0.0.0.0.0.0.",
"0.0.0.0.0.0.0.0.0.0.0.0.0.0.0.0.0.a.f.b.b.b.x.q.b.b.b.b.b.f.< +.+.+.+.+.+.< y.x.b.b.b.b.q.2.2.q.b.b.b.b.b.f.a.0.0.0.0.0.0.0.0.0.",
"0.0.0.0.0.0.0.0.0.0.0.0.0.0.0.0.0.a.f.b.b.b.x.q.b.b.b.b.b.f.< +.+.+.+.+.+.< q.q.b.b.b.b.q.2.2.q.b.b.b.b.b.f.a.0.0.0.0.0.0.0.0.0.",
"0.0.0.0.0.0.0.0.7 7 7 7 7 7 7 7 0.0.2.q.b.b.x.q.b.b.b.b.b.f.< +.+.+.+.+.+.< q.q.b.b.b.b.q.q.q.q.b.b.b.b.b.f.a.0.0.0.0.0.0.0.0.0.",
"0.0.0.0.m m m m 7 7 7 7 7 7 7 7 m 5.9.2.f.f.g.x.b.b.b.b.f.t.< +.+.+.+.+.7...y.x.b.b.b.b.q.q.y.x.b.b.b.b.b.f.a.0.0.0.0.0.0.0.0.0.",
"0.5.1.1.7 7 7 7 7 7 7 7 7 7 7 7 7 V 1.1.a.r.f.b.b.b.b.b.q.u.X.>.>.>.>.>.0.a.y.x.x.x.x.x.a.r.f.b.b.b.b.b.x.y.a.0.0.0.0.0.0.0.0.0.",
"0.m 7 7 7 7 7 7 7 7 7 7 7 7 7 7 7 7 7 7 0.a.f.b.b.b.b.b.q.2.0.0.0.0.0.0.0.a.q.q.q.q.q.q.0.a.f.b.b.b.b.b.q.q.a.0.0.0.0.0.0.0.0.0.",
"7 7 7 7 7 7 7 7 7 7 7 7 0.0.0.0.0.0.0.0.0.a.q.q.q.q.q.q.q.2.0.0.0.0.0.0.0.0.0.0.0.0.0.0.0.a.q.q.q.q.q.q.q.2.0.0.0.0.0.0.0.0.0.0.",
"7 7 7 7 7 7 7 7 7 7 a 1.0.0.0.0.0.0.0.0.0.4.2.2.2.2.2.2.2.9.0.0.0.0.0.0.0.0.0.0.0.0.0.0.0.4.2.2.2.2.2.2.2.9.0.0.0.0.0.0.0.0.0.0.",
"7 7 7 7 7 7 7 7 7 $ q <.<.<.<.<.<.6.0.0.0.0.0.0.0.0.0.0.0.0.0.0.0.0.0.0.0.0.0.0.0.0.0.0.0.0.0.0.0.0.0.0.0.0.0.0.0.0.0.0.0.0.0.0.",
"7 7 7 7 7 7 7 7 7 X               <.0.0.0.0.0.0.0.0.0.0.0.0.0.0.0.0.0.0.0.0.0.0.0.0.0.0.0.0.0.0.0.0.0.0.0.0.0.0.0.0.0.0.0.0.0.0.",
"7 7 7 7 7 7 7 7                             j 0.0.0.0.0.0.0.0.0.0.0.0.0.0.0.0.0.0.0.0.0.0.0.0.0.0.0.0.0.0.0.0.0.0.0.0.0.0.0.0.0.",
"7 7 7 7 7 + X X                             o j j 3.0.0.0.0.0.0.0.0.0.0.0.0.0.0.0.0.0.0.0.0.0.0.0.0.0.0.0.0.0.0.0.0.0.0.0.0.0.0.",
"7 7 7 7 7 X                                       k 3.0.0.0.0.0.0.0.0.0.0.0.0.0.0.0.0.0.0.0.0.0.0.0.0.0.0.0.0.0.0.0.0.0.0.0.0.0.",
"7 7 7 7 7 X                                         j 0.0.0.0.0.0.0.0.0.0.0.0.0.0.0.0.0.0.0.0.0.0.0.0.0.0.0.0.0.0.0.0.0.0.0.0.0."
};
