/* XPM */
static char *_7f574c3f62f4214f63226e0c1427135FpV9DU8k2OMeqJTC[] = {
/* columns rows colors chars-per-pixel */
"64 64 97 2 ",
"   c #432F00",
".  c #483E1C",
"X  c #004700",
"o  c #185B13",
"O  c #265A1A",
"+  c #0B6304",
"@  c #117106",
"#  c #3E6106",
"$  c #26701B",
"%  c #396327",
"&  c #2F7026",
"*  c #665327",
"=  c #4C6C34",
"-  c #616E28",
";  c #737439",
":  c #515C55",
">  c #607641",
",  c #737F4E",
"<  c #566B71",
"1  c #89774E",
"2  c #1C8E0A",
"3  c #229C0C",
"4  c #38940C",
"5  c #28AA0E",
"6  c #2DB810",
"7  c #398428",
"8  c #478439",
"9  c #33C612",
"0  c #39C42C",
"q  c #45CC23",
"w  c #57D334",
"e  c #459040",
"r  c #5F9742",
"t  c #5E994C",
"y  c #5FAD43",
"u  c #64A74E",
"i  c #76AD5F",
"p  c #528C75",
"a  c #4DBE7B",
"s  c #40C246",
"d  c #69D945",
"f  c #72C250",
"g  c #7BDF56",
"h  c #46C061",
"j  c #838B4C",
"k  c #86885B",
"l  c #95835B",
"z  c #998C68",
"x  c #9E9967",
"c  c #999268",
"v  c #969D75",
"b  c #AC9B75",
"n  c #A4BA72",
"m  c #ACBC76",
"M  c #85D65D",
"N  c #8DC272",
"B  c #ABDE77",
"V  c #98EB6B",
"C  c #9EEC78",
"Z  c #ABE977",
"A  c #ABF478",
"S  c #ABFF78",
"D  c #53BD95",
"F  c #5F88A9",
"G  c #5ABBAF",
"H  c #6497C6",
"J  c #60B9CA",
"K  c #68A6E2",
"L  c #67B7E4",
"P  c #6DB5FE",
"I  c #A59E84",
"U  c #B5AD8F",
"Y  c #B5B181",
"T  c #B9BC87",
"R  c #B9B69C",
"E  c #97A4A3",
"W  c #C4BA9C",
"Q  c #A8C98E",
"!  c #A5D685",
"~  c #B4D185",
"^  c #B0F289",
"/  c #BCEB98",
"(  c #B0CDAB",
")  c #C5C69B",
"_  c #C2D393",
"`  c #C7DE99",
"'  c #CBE99F",
"]  c #C2F99A",
"[  c #C6FF9A",
"{  c #CCC5A9",
"}  c #D4FFAB",
"|  c #82ACD0",
" . c #B2E6C7",
".. c #DCDAC3",
"X. c #E0E3D0",
"o. c #E4E4D0",
"O. c #F4F9EA",
/* pixels */
"P P P P P P P P P P P P P P P P P h 9 9 9 G P P P P P P P P P P P P P P P P P P P P P P P P P P P P P P P P P P P P P P P P P P ",
"P P P P P P P P P P P P P P J h h 0 9 9 9 s D P P P P P P P P P P P P P P P P P P P P P P P P P P P P P P P P P P P P P P P P P ",
"P P P P P P P P P P P P P J a 9 9 9 9 9 9 9 h P P P P P P P P P P P P P P P P P P P P P P P P P P P P P P P P P P P P P P P P P ",
"P P P P P P P P P P P P P h 9 9 9 9 9 9 9 9 h P P P P P P P P P P P P P P P P P P P P P P P P P P P P P P P P P P P P P P P P P ",
"P P P P P P P P P P P P P h 9 9 9 9 9 9 9 9 h P P P P P P P P P P P P P P P P P P P P P P P P P P P P P P P P P P P P P P P P P ",
"P P P P P P P P P P P P h 0 9 9 9 9 9 9 9 9 h P P P P P P P P P P P P P P P P P P P P P P P P P P P P P P P P P P P P P P P P P ",
"P P P P P P P P P P P P 9 9 9 9 9 9 9 9 9 s D P P P P P P P P P P P P P P P P P P P P P P P P P P P P P P P P P P P P P P P P P ",
"P P P P P P P P P P P P 9 9 9 9 9 9 9 9 9 G P P P P P P P P P P P P P P P P P P P P P P P P P P P P P P P P P P P P P P P P P P ",
"P P P P P P P P P P G 9 9 9 9 9 9 9 9 9 9 G P P P P P P P P P P P P P P P P P P P P P P P P P P P P P P P P P P P P P P P P P P ",
"P P P P P P P P P P G 9 9 9 9 9 9 9 9 9 G L P P P P P P P P P P P P P P P P P P P P P P P P P P P P P P : : : : : : : : : : : : ",
"P P P P P P P P P P G 9 9 9 9 9 9 9 0 h P P P P P P P P P P P P P P P P P P P P P P K F F F F F F F F F                         ",
"P P P P P P P P P P G 9 9 9 9 9 9 9 h P P P P P P P P P P P P P P P P P P P P P P P F                                           ",
"9 9 9 9 9 9 h P P P G 9 9 9 9 9 9 G P P P P P P P P P P P P P P             * b b b 1                                           ",
"9 9 9 9 9 9 0 h P P G 9 9 9 s G G L H : : : : : E E E E : : : :             * b b b 1                           F F F F F F F F ",
"9 9 9 9 9 9 9 9 F F p 4 4 4 e F F F <           b b b b                     * b b b 1       . : : : : : : : : : P P P P P P P P ",
"9 9 9 9 9 9 9 9                                 b b b b                     * b b b 1       : P P P P P P P P P P P P P P P P P ",
"9 9 9 9 9 9 9 9                                 b b b b             : P P P | b b b E P P P P P P P P P P P P P P P P P P P P P ",
"9 9 9 9 9 g C C                           j n n b b b b n n n n n n Q  . . .( b b b I E  . . . . . . . . . . . . . . . . . . . .",
"d d d d d ^ } } ; ; ; ; # # # # # - ; ; ; ~ } } b b b b } } } } } } } } } } ` b b b b b } } } } } } } } } } } } } } } } } } } } ",
"} } } } } } } } } } } } 9 9 9 9 9 C } } } } } } b b b b } } } } } } } } } } ` b b b b b } } } } } } } } } } } } } } } } } } } } ",
"} } } } } } } } } d 9 9 9 9 9 9 9 C } } } } } } b b b b } } } } } } } } } } ` b b b b b } } } } } } } } } } } } } } } } } } } } ",
"} } } } } } } } d q 9 9 9 9 9 9 C ] } } } } ' T b b b b } } } } } } } } } } ` b b b b b } } } } } } } } } } } } } } } } } } } } ",
"} } } } } } } } 9 9 9 9 9 w d d } } } } } } ` b b b b b } } } } } } } } } } ` b b b b b } } } } } } } } } } } } } } } } } } } } ",
"} } } } } } } } 9 9 9 9 9 C } } } } } } } } ` b b b b b } } } } } } } } } } ` b b b b b } } } } } } } } } } } } } } } } } } } } ",
"} } } } } } } } 9 9 9 9 } } } } } } } } } } ` b b b b b } } } } } } } } } } ` b b b b b } } } } } } } } } } } } } } } } } } } } ",
"} } } } } } } } C C C C } } } } } } } } } } ` b b b b b } } } } } } } } } _ Y b b b b b } } } } } } } } } } } } } } } } } } } } ",
"N / } } } } } } } } } } } } } } } } } } } } ` b b b b b } } } } } } } } } T b b b b b b } } } } } } } } } } } } } } } } } } } } ",
"X N } } } } } } } } } } } } } } } } } } } } ` b b b b b } } } } } } } } } T b b b b b b } } } } } } } } } } } } } } } } } } } } ",
"X X X X X N } } } } } } b b b b b ` } } } } ` b b b b b b ` } } } } } } } T b b b b b b } } } } } } } } } } } } } } } } } } } } ",
"X X X X X & 8 8 } _ T T b { ......) _ } } } ` b b b b b b ` } } } } } } } T b b b b b b } } } } } } } } } } } } } } } } } } } } ",
"X X X X X X X X ` Y b b W o.X.R R z x ` } } ` b b b b b b ` } } } } } } ` Y b b b b b b } } } } } } } } } } } } } } } } } } } } ",
"X X X X X X X X b b b b O.O.R       * b } } ` b b b b b b ` } } } } } } b b b b b b b b } } } } } } } } } } } } } } } } } } } } ",
"X X X X X X X X b b W O.O.O.R       * b b b b b b b b b b ` } } } } ` b b b b b b b b b } } } } } } } } } } } } } } } } } } } } ",
"X X X X X X X X b { o.O.O.O.X.R R R U b b b b b b b b b b Y T T T T Y b b b b b b b b b } } } } } } } } } } } } } } } } } } } } ",
"X X X X X X X X b ..X.R R X.X.R O.o.{ b b b b b b b b b b b b b b b b b b b b b b b b b [ [ [ [ [ [ [ [ [ [ [ [ [ [ [ [ [ [ [ [ ",
"X X X X X X X X b ..R     R R   O.W b b b b b b b b b b b b b b b b b b b b b b b b b b S S S S S S S S S S S S S S S S S S S S ",
"X X X X X X X X b ..R     R O.O.b b b b b b b b b b b b b b b b b b b b b b b b b b m S S S S S S S S S S S S S S S S S S S S S ",
"X X X X X X X X % v z     R o.W b b b b b b b b b b b b b b b b b b b b b b b b b b m S S S S S S S S S S S S S S S S S S S S S ",
"X X X X X X X X X , l * * U { b b b b b b b b b b b b b b b b b b b b b b b b b b b m S S S S S S S S S S S S S f f f f f V S S ",
"X X X X X X X X X , b b b b b b b b b b b b b b b b b b b b b b b b b b b b b b b b m S S S S S S S S S S S S S X X X X X f S S ",
"X X X X X X X X X X % b b b b b b b b b b b b b b b b b b b b b b b b b b b b b b B S S S S S S X X X X X X X X X X X X X X X X ",
"f $ X X X X X X X X % b b b b b b b b b b b b b b b b b b b b b b b b b b b b b b B S S S y 7 7 X X X X X X X X X X X X X X X X ",
"S y 7 7 7 7 7 7 X X O , , c b b b b b b b b b b b b b b b b b b b b b b b b b b m Z V f f $ X X X X X X X X X X X X X X X X X X ",
"S S S S S S S S X X X X X , b b b b b b b b b b b b b b b b b b b b b b b b b b S S f X X X X X X X X X X X X X X X X X X X X X ",
"S S S S S S S S S S S S X X X X b b b b b b b b b b b b b b b b b b b b b b b b X X X X X X X X X N } } } } } } } } } } } } N X ",
"S S S S S S S S S S S S f f f f % % > b b b b b b b b b b b b b b b b b b b k % X X X X X X & N N / ! 8 8 8 8 8 8 8 8 8 8 8 t N ",
"S S S S S S S S S S S S S S S S 7 7 r m b b b b b b b b b b b b b b b b b k = X X X X X 8 8 i } N N t X X X X X X X X X X X & N ",
"S S S S S S S S S S S S S S S S S S S S b b b b b b b b b b b b b b b b b % X X X X X X } } } } X X X X X X X X X X X X X X X X ",
"S S S S S S S S S S S S S S S S S S S S S S S S b b b b b b b b b B S S X X X X X N } } } 8 X X X X X X X X X X X X X X X X X X ",
"S S S S S S S S S S S S S S S S S S S S S S S S B B B B B B B B B A M 7 X X & N N / ! 8 8 o X X X X X X X X X X X X X X X X X X ",
"S S S S S S S S S S S S S S S S S S S S S S S S S S S S S S S S S S f X X & i } N N t X X X X X X X X X X X X X X X X X X X X X ",
"S S S S S S S S S S S S S S S S S S S S S S S S S S S S S S S S S S f X X N } } X X X X X X X X X X X X X X X X X X X X X X X X ",
"9 9 9 9 9 9 9 9 9 9 9 9 9 9 9 9 9 9 9 9 9 9 9 9 9 9 9 9 9 9 9 9 9 @ 8 } } } N X X X X X X X X X X X X X X X X X X 3 9 9 9 9 3 X ",
"9 9 9 9 @ @ @ @ @ @ @ @ 9 9 9 9 9 9 9 9 9 9 9 9 9 9 9 9 9 9 9 9 @ u ! } 8 8 & X X X X X X X X X X X X X 3 3 3 3 3 6 9 9 9 9 6 3 ",
"3 3 3 3 X X X X X X X X 3 3 3 3 9 9 9 9 9 9 9 9 9 9 9 9 9 9 9 9 X N / N X X X X X X X X X X X X @ @ @ @ 9 9 9 9 9 9 9 9 9 9 9 9 ",
"X X X X X X X X X X X X X X X X 9 9 9 9 9 9 9 9 9 9 9 9 9 9 9 9 X N N X X X X X X X X X X X X X 9 9 9 9 9 9 9 9 9 9 9 9 9 9 9 9 ",
"X X X X X X X X X X X X X X X X X 3 9 9 9 9 9 9 9 9 9 9 9 9 3 X } } N X X X X X X X X X 9 9 9 9 9 9 9 9 9 9 9 9 9 9 9 9 9 9 9 9 ",
"X X X X X X X X X X X X X X + 3 3 6 9 9 9 9 9 9 9 9 9 9 9 9 3 X } i & X X X X X 3 3 3 3 9 9 9 9 9 9 9 9 9 9 9 9 9 9 9 9 9 9 9 9 ",
"X X X X X X X X X X X X X + 2 9 9 9 9 9 9 9 9 9 9 9 9 9 9 9 3 X } 8 X X X + @ @ 9 9 9 9 9 9 9 9 9 9 9 9 9 9 9 9 9 9 9 9 9 9 9 9 ",
"X X X X X X X X X X X X X 3 9 9 9 9 9 9 9 9 9 9 9 9 9 9 9 9 3 X } 8 X X X 3 9 9 9 9 9 9 9 9 9 9 9 9 9 9 9 9 9 9 9 9 9 9 9 9 9 9 ",
"X X X X X X X X X X X X 9 9 9 9 9 9 9 9 9 9 9 9 9 9 9 9 9 9 3 X X X @ 9 9 9 9 9 9 9 9 9 9 9 9 9 9 9 9 9 9 9 9 9 9 9 9 9 9 9 9 9 ",
"X X X X X X X X X X + 3 9 9 9 9 9 9 9 9 9 9 9 9 9 9 9 9 9 9 3 X 3 3 5 9 9 9 9 9 9 9 9 9 9 9 9 9 9 9 9 9 9 9 9 9 9 9 9 9 9 9 9 9 ",
"X X X X X X X X X X @ 9 9 9 9 9 9 9 9 9 9 9 9 9 9 9 9 9 9 9 5 @ 9 9 9 9 9 9 9 9 9 9 9 9 9 9 9 9 9 9 9 9 9 9 9 9 9 9 9 9 9 9 9 9 ",
"X X X X X X X X X X @ 9 9 9 9 9 9 9 9 9 9 9 9 9 9 9 9 9 9 9 9 9 9 9 9 9 9 9 9 9 9 9 9 9 9 9 9 9 9 9 9 9 9 9 9 9 9 9 9 9 9 9 9 9 "
};
