/* XPM */
static char *_fa694a9beb34f10a649866b6e02c8dbKVMsAZKwpS4UHNzT[] = {
/* columns rows colors chars-per-pixel */
"64 64 197 2 ",
"   c #5B3E32",
".  c #694A39",
"X  c #724F3B",
"o  c #745A3C",
"O  c #765D3F",
"+  c #5F585F",
"@  c #68584A",
"#  c #765540",
"$  c #7E5840",
"%  c #635453",
"&  c #7F6750",
"*  c #7A6C59",
"=  c #7B7358",
"-  c #605965",
";  c #696369",
":  c #746765",
">  c #7E6860",
",  c #767261",
"<  c #7A706D",
"1  c #7A7B69",
"2  c #616676",
"3  c #6C6A74",
"4  c #6E717F",
"5  c #79767B",
"6  c #846147",
"7  c #82634F",
"8  c #8D6649",
"9  c #956949",
"0  c #976C4B",
"q  c #916D4E",
"w  c #836F58",
"e  c #89705D",
"r  c #9B7250",
"t  c #9D7553",
"y  c #9F7855",
"u  c #937B59",
"i  c #A0714D",
"p  c #A47852",
"a  c #AC7A52",
"s  c #A27A5E",
"d  c #AC7F5D",
"f  c #816A62",
"g  c #836D64",
"h  c #847166",
"j  c #877369",
"k  c #837E68",
"l  c #867B6E",
"z  c #977B64",
"x  c #997862",
"c  c #9B7B64",
"v  c #9B7D65",
"b  c #977A69",
"n  c #997F6E",
"m  c #8F7E73",
"M  c #AC845C",
"N  c #B78256",
"B  c #B4865C",
"V  c #B8855C",
"C  c #8E8065",
"Z  c #9F836A",
"A  c #9A836F",
"S  c #988C6F",
"D  c #94916C",
"F  c #8A8C76",
"G  c #838C79",
"H  c #80897F",
"J  c #9F8874",
"K  c #9E9576",
"L  c #A68163",
"P  c #AF8B67",
"I  c #A4876B",
"U  c #A1846C",
"Y  c #AE8D6D",
"T  c #B18662",
"R  c #B38965",
"E  c #B88D61",
"W  c #BC8C61",
"Q  c #BF8568",
"!  c #BA9063",
"~  c #BB966E",
"^  c #AC8F71",
"/  c #B29372",
"(  c #BA9E74",
")  c #B5977C",
"_  c #B59A7D",
"`  c #BF9E79",
"'  c #9CA97F",
"]  c #C38B5B",
"[  c #C79160",
"{  c #C99462",
"}  c #CB9765",
"|  c #CD9B67",
" . c #C79B6A",
".. c #CF9E6A",
"X. c #CE9C6E",
"o. c #C79C75",
"O. c #C89E70",
"+. c #C49B7B",
"@. c #D49C72",
"#. c #D1A16C",
"$. c #D3A46F",
"%. c #C1A774",
"&. c #C4A07A",
"*. c #C7A67F",
"=. c #D5A771",
"-. c #D1A677",
";. c #D8A773",
":. c #DEA777",
">. c #D2AD77",
",. c #D3A979",
"<. c #D5AC7B",
"1. c #C2B37E",
"2. c #EBA87F",
"3. c #7E8882",
"4. c #7B8589",
"5. c #79848C",
"6. c #748095",
"7. c #7F8491",
"8. c #7C8A97",
"9. c #6580A3",
"0. c #678DBA",
"q. c #7292B8",
"w. c #7198C4",
"e. c #699BD1",
"r. c #6FA3DB",
"t. c #6FA9E7",
"y. c #79B3EE",
"u. c #6DB5FE",
"i. c #878388",
"p. c #8A898D",
"a. c #948D89",
"s. c #9F9185",
"d. c #9F9389",
"f. c #878C97",
"g. c #849599",
"h. c #8C9F9A",
"j. c #AC9986",
"k. c #A2928D",
"l. c #B39984",
"z. c #94AA9C",
"x. c #BBA68E",
"c. c #A6BA8B",
"v. c #ACA49B",
"b. c #949DA8",
"n. c #AEADAC",
"m. c #B2ACA0",
"M. c #B6A9A4",
"N. c #BFACA8",
"B. c #A4BFA0",
"V. c #BAB0A2",
"C. c #BAB5AC",
"Z. c #B5BABC",
"A. c #C4A380",
"S. c #C9A482",
"D. c #C6A488",
"F. c #D0AE8A",
"G. c #CDB982",
"H. c #D5B286",
"J. c #C4A690",
"K. c #C4AC9B",
"L. c #C6AF9D",
"P. c #C7B194",
"I. c #CDB091",
"U. c #CCB39A",
"Y. c #D5B790",
"T. c #D5BC9B",
"R. c #F1A883",
"E. c #C5ACAC",
"W. c #C5B1A6",
"Q. c #C3B5A4",
"!. c #CAB5A2",
"~. c #C7BBA9",
"^. c #CFBEA8",
"/. c #C5B7B0",
"(. c #C7BAB3",
"). c #C5BCBB",
"_. c #C8BFBB",
"`. c #B7C08D",
"'. c #BEC28C",
"]. c #BECC95",
"[. c #ACC9A1",
"{. c #B4D4A3",
"}. c #BCDEA5",
"|. c #B0CFB5",
" X c #CECC9A",
".X c #C2D299",
"XX c #D5C2A5",
"oX c #C7C6BE",
"OX c #D5C7B0",
"+X c #D1C6B5",
"@X c #D5CCBA",
"#X c #90B0CF",
"$X c #99B1D5",
"%X c #A2D0C3",
"&X c #CACDC9",
"*X c #D5D7CF",
"=X c white",
/* pixels */
"u.u.u.u.u.u.u.u.u.u.u.u.u.u.u.u.u.u.u.u.u.u.u.u.u.u.u.u.u.u.u.u.u.u.u.u.u.u.u.u.u.u.u.u.u.u.u.u.u.u.u.u.u.u.u.u.u.u.u.u.u.u.u.u.",
"u.u.u.u.u.u.u.u.u.u.u.u.u.u.u.u.u.u.u.u.u.u.u.u.u.u.u.u.u.u.u.u.u.u.u.u.u.u.u.u.u.u.u.u.u.u.u.u.u.u.u.u.u.u.u.u.u.u.u.u.u.u.u.u.",
"u.u.u.u.u.u.u.u.u.u.u.u.u.u.u.u.u.u.u.u.u.u.u.u.u.u.u.u.u.u.u.u.u.u.u.u.u.u.u.u.u.u.u.u.u.u.u.u.u.u.u.u.u.u.u.u.u.u.u.u.u.u.u.u.",
"u.u.u.u.u.u.u.u.u.u.u.u.u.u.u.u.u.u.u.u.u.u.u.u.u.u.u.u.u.u.u.u.u.u.u.u.u.u.u.u.u.u.u.u.u.u.u.u.u.u.u.u.u.u.u.u.u.u.u.u.u.u.u.u.",
"u.u.u.u.u.u.u.u.u.u.u.u.u.u.u.u.u.u.u.u.u.u.u.u.u.u.u.u.u.u.u.u.u.u.u.u.u.u.u.u.u.u.u.u.u.u.u.u.u.u.u.u.u.u.u.u.u.u.u.u.u.u.u.u.",
"u.u.u.u.u.u.u.u.u.u.u.u.u.u.u.u.u.u.u.u.u.u.u.u.u.u.u.u.u.u.u.u.u.u.u.u.u.u.u.u.u.u.u.u.u.u.u.u.u.u.u.u.u.u.u.u.u.u.u.u.u.u.u.u.",
"u.u.u.u.u.u.u.u.u.u.u.u.u.u.u.u.u.u.u.u.u.u.u.u.u.u.u.u.u.e.0.0.u.u.u.u.u.u.u.u.u.u.u.u.u.u.u.u.u.u.u.u.0.0.e.u.u.u.u.u.u.u.u.u.",
"u.u.u.u.u.u.u.u.u.u.u.u.u.u.u.u.u.u.u.u.u.u.u.u.u.u.u.u.u.2     u.u.u.u.u.u.u.u.u.u.u.u.u.u.u.u.u.u.u.u.    2 u.u.u.u.u.u.u.u.u.",
"u.u.u.u.u.u.u.u.u.u.u.u.u.u.u.u.u.u.u.u.u.u.u.u.u.u.u.u.u.m.M     0.u.u.u.u.u.u.u.u.u.u.u.u.u.u.u.u.0.    M m.u.u.u.u.u.u.u.u.u.",
"u.u.u.u.u.u.u.u.u.u.u.u.u.u.u.u.u.u.u.u.u.u.u.u.u.u.u.u.u.N.@.M   + 9.u.u.u.u.u.u.u.u.u.u.u.u.u.u.9.+   M @.N.u.u.u.u.u.u.u.u.u.",
"u.u.u.u.u.u.u.u.u.u.u.u.u.u.u.u.u.u.u.u.u.u.u.u.u.u.u.u.u.E.2.:.6 6 < 0.u.u.y.#X0.0.0.0.#Xy.u.u.0.< 6 6 :.2.E.u.u.u.u.u.u.u.u.u.",
"u.u.u.u.u.u.u.u.u.u.u.u.u.u.u.u.u.u.u.u.u.u.u.u.u.u.u.u.u.E.R.R.=.=.M   u.u.#X=.        =.#Xu.u.  M =.=.R.R.E.u.u.u.u.u.u.u.u.u.",
"u.u.u.u.u.u.u.u.u.u.u.u.u.u.u.u.u.u.u.u.u.u.u.u.u.u.u.u.u.E.R.R.R.:.=.=.=.=.=.=.=.6 6 =.=.=.=.=.=.=.:.R.R.R.E.u.u.u.u.u.u.u.u.u.",
"q.q.q.q.q.t.u.u.u.u.u.u.u.u.u.u.u.u.u.u.u.u.u.u.u.u.u.u.u.E.R.R.R.:.=.=.=.y y =.=.6 6 =.=.y y =.=.=.:.R.R.R.E.u.u.u.u.u.u.u.u.u.",
"6.6.6.6.6.w.r.r.r.r.t.u.u.u.u.u.u.u.u.u.u.u.u.u.u.u.u.u.u.E.R.R.R.:.=.=.=.6 6 =.=.6 6 =.=.6 6 =.=.=.:.R.R.R.E.u.u.u.u.u.u.u.u.u.",
"6.6.6.6.6.6.6.6.6.6.q.u.u.u.u.u.u.u.u.u.u.u.u.u.u.u.u.u.u.E.R.R.R.:.=.=.=.6 6 =.=.6 6 =.=.6 6 =.=.=.:.R.R.R.E.u.u.u.u.u.u.u.u.u.",
"6.6.6.6.6.6.6.6.6.6.6.6.6.6.6.6.u.u.u.u.u.u.u.u.u.u.u.u.u.u.$XR.R.:.=.=.=.=.=.=.=.=.=.=.=.=.=.=.=.=.:.R.R.$Xu.u.u.u.u.u.u.u.u.u.",
"6.6.6.6.6.6.6.6.6.6.6.6.6.6.6.6.q.q.q.q.%X%X%X%X%X%X%X%X%X%X|. X:.;.=.=.=.O O =.=.=.=.=.=.O O =.=.=.;.:. X|.%X%X%X%X%X%X%X%X%X%X",
"6.6.6.6.6.6.6.6.6.6.6.6.6.6.6.6.6.6.6.6.B.B.[.}.}.}.}.}.}.}.}.}.G.>.$.....o O =.M X.X.M =.O o ....$.>.G.}.}.}.}.}.}.}.}.}.}.}.}.",
"6.6.6.6.6.6.6.6.6.6.6.6.6.6.6.6.6.6.6.6.6.6.h.}.}.}.}.}.}.}.}.}.}.G...] ] ..=.=.  Q Q   =.=...] ] ..G.}.}.}.}.}.}.}.}.}.}.}.}.}.",
"6.6.6.6.6.6.6.6.6.6.6.6.6.6.6.6.6.6.6.6.6.6.6.6.6.B.}.}.}.}.}.}.}.%.{ =.=.=.M   =X=X=X=X  M =.=.=.{ %.}.}.}.}.}.}.}.}.}.}.}.}.}.",
"6.6.6.6.6.6.6.6.6.6.6.6.6.6.6.6.6.6.6.6.6.6.6.6.6.B.}.}.}.}.}.}.}.].1.{ { r A _.=XM.M.=X_.A r { { 1.].}.}.}.}.}.}.}.}.}.h.h.h.h.",
"6.6.6.6.6.6.6.6.6.6.6.6.6.6.6.6.6.6.6.6.6.6.6.6.6.z.[.}.}.}.}.}.}.}.'.] ] 9 b _._.A A _._.b 9 ] ] '.}.}.}.[.B.B.B.B.B.B.6.6.6.6.",
"6.6.6.6.6.6.6.6.6.6.6.6.6.6.6.6.6.6.6.6.6.6.6.6.6.6.h.}.}.}.}.}.}.}.'.] ] ] i     M M     i ] ] ] '.}.}.}.h.6.6.6.6.6.6.6.6.6.6.",
"6.6.6.6.6.6.6.6.6.6.6.6.6.6.6.6.6.6.6.6.6.6.6.6.6.6.h.}.}.}.}.}.}.}.}.}.] ] ] ] ] ] ] ] ] ] ] ] }.}.B.6.6.6.6.6.6.6.6.6.6.6.6.6.",
"6.6.6.6.6.6.6.6.6.6.6.6.6.6.6.6.6.6.6.6.6.6.6.6.6.6.8.h.}.}.}.}.}.}.c.= $ B } ] ] ] ] ] ] 9 u '.h.h.g.6.6.6.6.6.6.6.6.6.6.6.6.6.",
"6.6.6.6.6.6.6.6.6.6.6.6.6.6.6.6.6.6.6.6.6.6.6.6.6.6.6.6.}.}.}.}.}.c.D 6 6 ! #.{ { { { { { r C B.6.6.6.6.6.6.6.6.6.6.6.6.6.6.6.6.",
"6.6.6.6.6.6.6.6.6.6.6.6.6.6.6.6.6.6.6.6.6.6.6.6.6.6.6.6.}.}.}.}.}.= 6 =.=.=.=.=.=.=.=.=.=.=._ 6.6.6.6.6.6.6.6.6.6.6.6.6.6.6.6.6.",
"6.6.6.6.6.6.6.6.6.6.6.6.6.6.6.6.6.6.6.6.6.6.6.6.6.6.6.6.}.}.}.}.=.=.=.=.=.6 6 =.=.=.=.=.=.6     6.6.6.6.6.6.6.6.6.6.6.6.6.6.6.6.",
"6.6.6.6.6.6.6.6.6.6.6.6.6.6.6.6.6.6.6.6.6.6.6.6.6.6.6.6.}.}..XG.=.y 6 6 =.! y 6 =.=.=.=.6 .     6.6.6.6.6.6.6.6.6.6.6.6.6.6.6.6.",
"6.6.6.6.6.6.6.6.6.6.6.6.6.6.6.6.6.6.6.6.6.6.6.6.6.6.6.6.B.{.`.M M #     =.=.M   F.F.F.F.> 7 6 6 a.7.6.6.6.6.6.6.6.6.6.6.6.6.6.6.",
"6.6.6.6.6.6.6.6.6.6.6.6.6.6.6.6.6.6.6.6.6.6.6.6.6.6.6.6.6.B.'           =.=.M   ).).).).).F.=.=.=.a.6.6.6.6.6.6.6.6.6.6.6.6.6.6.",
"6.6.6.6.6.6.6.6.6.6.6.6.6.6.6.6.6.6.6.6.6.6.6.6.6.6.6.6.6._ M     M =.=.=.=.F.).).).).).).).!.=.=.a.6.6.6.6.6.6.6.6.6.6.6.6.6.6.",
"6.6.6.6.6.6.6.6.6.6.4 % % % ; 6.6.6.6.6.6.6.6.6.6.6.6.6.% P  .M M  .=.=.=.=.F.).).).).).).).(.!.6 5 6.6.6.6.6.6.6.6.6.6.6.6.6.6.",
"6.6.6.6.6.6.6.6.a.5 : 6     % 6.6.6.6.6.6.6.6.6.6.6.6.6.  q M M =.=. .M M &.U.).).).).).).).).).6 m p.6.6.6.6.6.6.6.6.6.6.6.6.6.",
"6.6.6.6.6.6.6.6.=.6 6 =.    % 6.6.6.6.6.6.6.6.6.6.6.6.6.        =.=.M     k.).).).).).).).).).).=.=._ 6.6.6.6.6.6.6.6.6.6.6.6.6.",
"6.6.6.6.6.6.3   =.6     6.6.6.6.6.6.6.6.6.6.6.6.6.6.a.=.    6 =.=.=.=.=.=.!.).).).).).).).).).).).F._ 6.6.6.6.6.6.6.6.6.6.6.6.6.",
"6.6.6.6.6.s.z   6 y z 3 6.6.6.6.6.6.6.6.6.6.6.6.6.s.` =.M M ! =.6 ! =.=.{ L.).).).).).).).).).).).n > 6.6.6.6.6.6.6.6.6.6.6.6.6.",
"b.b.b.b.3 / ! 6 6 I s.6.6.6.6.6.6.6.6.6.6.6.6.6.6.A M M =.=.=.=.  q E ..+.W.).).).).).).).).).).).n e a.6.6.6.6.6.6.6.6.6.6.6.6.",
"*X*X*X*X  M =.=.=.a.6.6.6.6.6.6.6.6.6.6.6.6.6.6.6.%     =.=.=.=.    $ ] ).).).).).).).).).).).).).F.=.=.6.6.6.6.6.6.6.6.6.6.6.6.",
"*X*XOX=.        *X*XZ.6.6.6.6.6.6.6.6.6.6.6.6.6.=.=.=.=.=.=.=.=.=.=...] ).).).).).).).).).).).).).F.=.=.6.6.6.6.6.6.6.6.6.6.6.6.",
"*X*XV.6 M M ^ v.*X*X&XZ.Z.Z.Z.Z.6.6.6.6.6.6.6.6.6 ! =.=.=.y 6 6 =.| o.K.).).).).).).).).).).).).).F.! 6 6.6.6.6.6.4.3.3.3.3.3.3.",
"*X*Xv.  M *.XX*X*X*X*X*X*X*X*X*Xb.b.b.b.b.b.f.3   M =.=.M # . 6 ..o.J.).).).).).).).).).).).).).).) y 6 5.5.5.5.5.H G G G G G G ",
"*X*Xv.    v.*X*X*X*X*X*X*X*X*X*X*X*X*X*X*X*Xv.    M =.=.    6 =.] K.).).).).).).).).).).).).).).).> 6 =.G G G G G G G G G G G G ",
"*X*XOX=.  v.*X*X*X*X*X*X*X*X*X*X*X*X*X*X*XY.=.=.=.=.=.=.=.=.M   ] K.).).).).).).).).).).).).).).).F.M   G G G G G G G G G G G G ",
"*Xd.Z =.M ~.*X*X*X*X*X*X*X*X*X*X*X*X@XY.Y.<.#.{ =.=.=.=.=.=. .M ] K.).).).).).).).).).).).).).).).n & , G G G G G G G G G G G G ",
"*Xh # M Y.@X*X*X*X*X*X*X*X*X*X*X*X@XP.M M  ...] =.=. .M =.=.=.=.{ D.W.).).).).).).).).).).).).).!.v w G G G G G G G G G G G G G ",
"*Xh     *X*X*X*X*X*X*X*X*X*X*X*X*XY.M     M ..] =.=.M   =.=.=.=.=.{ +.).).).).).).).).).).).).).=.=.( G G G G G G G G G G G G G ",
"*XY.=.=.*X*X*X*X*X*X*X*X*X*Xv.    M =.=.  M ..] ] $     =.=.=.=.  i ] ] ).).).).).).).).).).).).=.6 @ G G G G G G G G G G G G G ",
"*XJ 6 6 Y.@X*X*X*X*X*X*X*X*X~.M   M =.=.M  .$...] a p M =.y y =.M 8 9 ] +.W.).).).).).).).).).).6 * 1 G G G G G G G G G G G G G ",
"*XJ 6 6 M P.@X*X*X*X*X*Xv.~.T.=.6 ! =.=.=.=.=.=.i N [ ..=.y q M =.y r { { D.K.K.K./.).).).).(.!.6 k G G G G G G G G G G G G G G ",
"*XY.=.=.  M Y.*X*X*X*X*X  M =.=.=.=.=.=.=.=.=.=.  i ] ] =.=.M   =.=.=.=.=.{ ] ] ] K.).).).).!.=.=.K G G G G G G G G G G G G G G ",
"*X*Xv.    M M   =.6 6 =.  M =.=.=.6     =.=.=.=.=.6 $ ] ] ..=.=.=.=.=.=.=.=.=.=.- s +.).).F.=.=.=.K G G G G G G G G G G G G G G ",
"*X*XoXv.M q #   =.6 6 =.  j.T.=.=.! M M =.y 6 6 =.! t $ ] ..=.=.=.=.=.=.=.U U =.s V d > F.,.=.=.6 k G G G G G G G G G G G G G G ",
"*X*X*X*XY.J h h Y.J J Y.h C.OX=.=.=.=.=.=.y 6 6 =.=.! 6 i W #.=.=.=.O.Y =.j h ..i i 0 6 =.! M M 6 k G G G G G G G G G G G G G G ",
"*X*X*X*X*X*X*X*X*X*X*X*X*X*XOX=.=.=.=.=.=.=.=.=.=.=.=.=.  i { =.=.=.Y - =.j f ]     6 =.=.6     =.K G G G G G G G G G G G G G G ",
"*X*X*X*X*X*X*X*X*X*X*X*X*X*X*X*X=.=.=.=.=.{ ] ] ] ..=.=.  i { =.=.=.Y - =.{ i     M =.=.  M =.=.=.=.( G G G G G G G G G G G G G ",
"*X*X*X*X*X*X*X*X*X*X*X*X*X*X*X*XOXH.#.{ { x c ..f T { { v.Q.I.{ j R W s { 0 X   M  .=.=.M  .#.{ { {  .( G G G G G G G G G G G G ",
"*X*X*X*X*X*X*X*X*X*X*X*X*X*X*X*X*XXXA.s { g j =.- L W s *X*X+XS.i.l.S.S.S.A h h Y.-.#.=.....| { { { } ..S F G G G G G G G G G G ",
"*X*X*X*X*X*X*X*X*X*X*X*X*X*X*X*X*X*Xn.- =.j j =.- Y Y - *X*X*X*X*X*X*X*X*X*X*X*X*XS.{ =.] ] { =.=.=...] ] S G G G G G G G G G G ",
"*X*X*X*X*X*X*X*X*X*X*X*X*X*X*X*X*X*X*X*X*X*X*X*X*X*X*X*X*X*X*X*X*X*X*X*X*X*X*X*X*X*X^.] =.=.Y - =.j j =.] S G G G G G G G G G G ",
"*X*X*X*X*X*X*X*X*X*X*X*X*X*X*X*X*X*X*X*X*X*X*X*X*X*X*X*X*X*X*X*X*X*X*X*X*X*X*X*X*X*X^.] j ~ Y - =.j j =.S F G G G G G G G G G G ",
"*X*X*X*X*X*X*X*X*X*X*X*X*X*X*X*X*X*X*X*X*X*X*X*X*X*X*X*X*X*X*X*X*X*X*X*X*X*X*X*X*X*X+XS.i.x.x.i.( l l ( G G G G G G G G G G G G ",
"*X*X*X*X*X*X*X*X*X*X*X*X*X*X*X*X*X*X*X*X*X*X*X*X*X*X*X*X*X*X*X*X*X*X*X*X*X*X*X*X*X*X*X*X*X*X*X*XG G G G G G G G G G G G G G G G "
};
