/* XPM */
static char *d27b5857857547baf7a90bcaa1cb6aac37qHRzS6fgwcgXHC[] = {
/* columns rows colors chars-per-pixel */
"64 64 194 2 ",
"   c #001C1F",
".  c #39171F",
"X  c #002A1B",
"o  c #003816",
"O  c #352B1F",
"+  c #000028",
"@  c #1A1624",
"#  c #131E32",
"$  c #181930",
"%  c #221B22",
"&  c #1C2D37",
"*  c #34372B",
"=  c #55221B",
"-  c #00550D",
";  c #28551B",
":  c #007104",
">  c #007F00",
",  c #4F411B",
"<  c #655117",
"1  c #6A5616",
"2  c #557700",
"3  c #726E12",
"4  c #736E36",
"5  c #0E1D47",
"6  c #1C1C40",
"7  c #1C2F46",
"8  c #182858",
"9  c #243C6F",
"0  c #2F4B41",
"q  c #385442",
"w  c #385A46",
"e  c #494A41",
"r  c #415152",
"t  c #4A704B",
"y  c #476353",
"u  c #4B7850",
"i  c #555570",
"p  c #8E3912",
"a  c #AA450D",
"s  c #977A0E",
"d  c #E35C04",
"f  c #FF6700",
"g  c #F66C00",
"h  c #E47700",
"j  c #FB740D",
"k  c #138D0D",
"l  c #18890D",
"z  c #1B9B00",
"x  c #0C851C",
"c  c #138113",
"v  c #168C12",
"b  c #1C821C",
"n  c #259B1A",
"m  c #31941A",
"M  c #28AA00",
"N  c #33A60D",
"B  c #36B800",
"V  c #188B38",
"C  c #2F832F",
"Z  c #2B9925",
"A  c #388C31",
"S  c #388439",
"D  c #38A928",
"F  c #51AA0D",
"G  c #489625",
"H  c #499E27",
"J  c #41A637",
"K  c #51D400",
"L  c #5EE300",
"P  c #7CF002",
"I  c #79FF00",
"U  c #76E21F",
"Y  c #249155",
"T  c #309771",
"R  c #4A8C42",
"E  c #448A55",
"W  c #548755",
"Q  c #769442",
"!  c #60935E",
"~  c #57B34A",
"^  c #7AB340",
"/  c #75B84C",
"(  c #6FA85D",
")  c #6CBF5C",
"_  c #5A917B",
"`  c #698A6A",
"'  c #6D9F67",
"]  c #79AB70",
"[  c #5DC442",
"{  c #6FD24F",
"}  c #9F8409",
"|  c #9F810D",
" . c #94890C",
".. c #9E8F17",
"X. c #99881A",
"o. c #AE9700",
"O. c #B99709",
"+. c #8DA609",
"@. c #8AB508",
"#. c #9CBA00",
"$. c #A8A300",
"%. c #A2AE00",
"&. c #ADA20D",
"*. c #BBAE1C",
"=. c #9B9725",
"-. c #879B39",
";. c #A69025",
":. c #AE9B30",
">. c #A89E30",
",. c #9CA531",
"<. c #9EB43D",
"1. c #ACB928",
"2. c #BDB32F",
"3. c #A2A231",
"4. c #D4AC04",
"5. c #DDBB09",
"6. c #F38E27",
"7. c #EE9332",
"8. c #EB9637",
"9. c #83D305",
"0. c #8BDC00",
"q. c #91D100",
"w. c #84FB0D",
"e. c #8FF71A",
"r. c #8FE02B",
"t. c #88FE28",
"y. c #9AF427",
"u. c #A5F034",
"i. c #EEC200",
"p. c #849E4C",
"a. c #93BE4D",
"s. c #B2B847",
"d. c #94BA64",
"f. c #82A27C",
"g. c #9EAD78",
"h. c #C5BC52",
"j. c #C3BE55",
"k. c #A2D154",
"l. c #82E05D",
"z. c #BBE84D",
"x. c #A4F341",
"c. c #82C465",
"v. c #82CC6F",
"b. c #A3DF60",
"n. c #A0E769",
"m. c #A5EE6B",
"M. c #A7FC77",
"N. c #ADF977",
"B. c #B3F576",
"V. c #B9F276",
"C. c #C6E55A",
"Z. c #D7C46F",
"A. c #DCDD74",
"S. c #D1E167",
"D. c #D1E36F",
"F. c #CAE775",
"G. c #C4EB75",
"H. c #D6E27F",
"J. c #2B5786",
"K. c #3D659F",
"L. c #717188",
"P. c #4979B7",
"I. c #3D9D8D",
"U. c #548E81",
"Y. c #5C968D",
"T. c #49A3A9",
"R. c #62A1B3",
"E. c #55A9C6",
"W. c #65A6C6",
"Q. c #61A1E6",
"!. c #61AFE2",
"~. c #6DB5FE",
"^. c #AAAAB7",
"/. c #92C382",
"(. c #9ECF8B",
"). c #98D981",
"_. c #B7E79D",
"`. c #BBFD95",
"'. c #C6D196",
"]. c #D4E485",
"[. c #D1E78A",
"{. c #C8EE94",
"}. c #C9EE9B",
"|. c #E4E593",
" X c #C3F3A6",
".X c #A6DEC3",
"XX c #C6C6CF",
"oX c #D8FEC3",
"OX c #EFF0C1",
"+X c #E2FED2",
"@X c #F3F4D1",
"#X c #E3E3E7",
"$X c #EBFBE1",
"%X c white",
/* pixels */
"~.~.~.~.~.~.~.~.~.~.~.~.~.~.~.~.~.~.~.~.~.~.~.~.~.~.~.~.~.~.~.~.~.~.~.~.~.~.~.~.~.~.~.~.~.~.~.~.~.~.~.~.~.~.~.~.~.~.~.~.~.~.~.~.",
"~.~.~.~.~.~.~.~.~.~.~.~.~.~.~.~.~.~.~.~.~.~.~.~.~.~.~.~.~.~.~.~.~.~.~.~.~.~.~.~.~.~.~.~.~.~.~.~.~.~.~.~.~.~.~.~.~.~.~.~.~.~.~.~.",
"~.~.~.~.~.~.~.~.~.~.~.~.~.~.~.~.~.~.~.~.~.~.~.~.~.~.~.~.~.~.~.~.~.~.~.~.~.~.~.~.~.~.~.~.~.~.~.~.~.~.~.~.~.~.~.~.~.~.~.~.~.~.~.~.",
"~.~.~.~.~.~.~.~.~.~.~.~.~.~.~.~.~.~.~.~.~.~.~.~.~.~.~.~.~.~.~.~.~.~.~.~.~.~.~.~.~.~.~.~.~.~.~.~.~.~.~.~.~.~.~.~.~.~.~.~.~.~.~.~.",
"~.~.~.~.~.~.~.~.~.~.~.~.~.~.~.~.~.~.~.~.~.~.~.~.~.~.~.~.~.~.~.~.~.~.~.~.~.~.~.~.~.~.~.~.~.Y > > > > > > ~.~.~.~.~.~.~.~.~.~.~.~.",
"~.~.~.~.~.~.~.~.~.~.~.~.~.~.~.~.~.~.~.~.~.~.~.~.~.~.~.~.~.~.~.~.~.~.~.~.~.~.~.~.~.~.E.Y Y x > > > > > > Y Y I.~.~.~.~.~.~.~.~.~.",
"~.~.~.~.~.~.~.~.~.~.~.~.~.~.~.~.~.~.~.~.~.~.~.~.~.~.~.~.~.~.~.~.~.~.~.~.~.~.~.~.~.E.T > > > > > > > > > > > V T.T.!.~.~.~.~.~.~.",
"~.~.~.~.~.~.~.~.~.~.~.~.~.~.~.~.~.~.~.~.~.~.~.~.~.~.~.~.~.~.~.~.~.~.~.~.~.~.~.~.~.Y > > > > > > > > > > > > > > > T.~.~.~.~.~.~.",
"~.~.~.~.~.~.~.~.~.~.~.~.~.~.~.~.~.~.~.~.~.~.~.~.~.~.~.~.~.~.~.~.~.~.~.~.~.~.~.~.> > > > > > > > > > > > > > > > > > Y ~.~.~.~.~.",
"~.~.~.~.~.~.~.~.~.~.~.~.~.~.~.~.~.~.~.~.~.~.~.~.~.~.~.~.~.K.9 9 9 9 9 9 ~.~.~.~.T.T.T.T.T.T.T.T.> > c S S S S S S S E Y.Y.Y.R.~.",
"~.~.~.~.~.~.~.~.~.~.~.~.~.~.~.~.~.~.~.~.~.~.~.~.~.~.Q.P.P.8 + + + + + + P.P.P.P.~.~.~.~.~.~.~.~.b b C W W W W W W W W W W W _ W.",
"~.~.~.~.~.~.~.~.~.~.~.~.~.~.~.~.~.~.~.~.~.~.~.~.~.~.P.+ + + + + + + + + + + + + ~.~.~.~.~.~.~.~.W W W W W W W W W W W W W W W W ",
"~.~.~.~.~.~.~.~.~.~.~.~.~.~.~.~.~.~.~.~.~.~.~.~.+ + + + + + + + + + + + + + + + ~.~.~.~.~.Y.W W W W W W W W W W W W W W W W W W ",
".X.X.X.X.X.X.X.X.X.X.X.X.X.X.X.X.X.X.X.X.X.X.X.X+ + + + + + + + + + + + + 1 | | j.j.j.j.j.2.*.*.W W W W W W W W W W W W W W ' (.",
" X X X X X X X X X X X X X X X X X X X X X X X X+ + + + + + @ , , , O + , O.i.i.i.i.i.i.i.i.i.i.-.-.-.-.-.-.Q W W W W W W W ]  X",
" X X X X X X X X X X X X X X X X X X X X X X X X+ + + + + + , i.i.i.| + i.i.i.i.i.i.i.i.i.i.i.i.i.i.i.i.i.i.*.W W W W W W W ]  X",
" X X X X X X X X X X X X X X X X X X X X X Xf.+ + + + + + + , i.+ | | + i.i.i.i.i.i.i.i.i.i.i.i.i.i.i.i.i.i.i.i.i.i.*.W W (. X X",
" X X X X X X X X X/.] ] ] ] ] ] ] ] /. X X Xf.+ + + + + + + , i.| 4.| + i.i.i.i.i.i.i.i.i.i.i.i.i.i.i.i.i.i.i.i.i.i.5.*.(._. X X",
" X X X X X X_.(.(.' W W W W W W W W ' (.(.(.` + + + + + + + O | | | 1 + i.i.i.i.i.i.i.i.i.i.i.i.i.i.i.i.i.O.| | | | O.i.D.{. X X",
" X X X X X X(.W W W W W W W W W W W W W W W w + + + + + + + + + + + + + i.i.i.i.i.i.i.i.i.i.i.i.i.i.i.i.i., + + + + , i.i.D. X X",
" X X X X X] W W W W W W W W W W W W W W W W w + + + + + + ^.%X%X%X%X^.+ f f f f f f f f f f f f f f f f f f a + + + + + + f. X X",
" X X X X] ! W W W W W W W W W W W W W W W 0 # + + + + + ^.#X%X%X%X%X^.+ f f f f f f f f f f f f f f f f f f d a a . + + + f. X X",
" X X X XW W W W W W W W W W W W W W W W W & + + + + 6 i %X%X%X%X%X%X^.+ a d g h 8.8.8.8.8.8.8.8.8.8.7.6.6.j f f f p = = = g. X X",
" X X X XW W W W W W W W W W W W W W W W W & + + + + i %X%X%X%X%X%X%X^.+ + a h o. X X X X X X X X X X{.A.A.6.f f f f f f f Z. X X",
" X X X X X X(.W W W W W W W W W W W W W + + + + + + i %X%X%X%X%X%X%X%X%X+ f. X X X X X X X X X X X].A.A. X X X X XJ > > f Z. X X",
" X X X X X X_.(.(.' W W W W W W W W W W + + + + + + i %X%X%X%X%X%X%X%X%X^.'.].]. X X X X X X X X X].H.{. X X).J J v > > 2 G J J ",
" X X X X X X X X X/.' W W W W W W W u w + + + + + + i %X%X%X%X%X%X%X%X%X%XOX|.A.{.{.}. X X X X X X].]. Xv.v.~ > > > > > > > > > ",
" X X X X X X X X X X(.W W W W W W W w + + + + + + + i %X%X%X%X%X%X%X%X%X%X%X@XA.A.A.]. X X X X X X].]. X> > > > > > > > > > > > ",
" X X X X X X X X X X X X X X(.W W W w + + + + + + + + + %X%X%X%X%X%X%X%X%X%X$X X X].A.A. X X X XA.A.a.> > > > > > > > > > > J  X",
" X X X X X X X X X X X X X X_.(.(.y # + + + + + + + + + i XX%X%X%X%X%X%X%X%X$X X X}.[.A.].}. X XA.^ m > > > > > > > Z v.v.v.). X",
" X X X X X X X X X X X X X X X X Xr + + + + + + + + + + + ^.%X%X%X%X%X%X%X%X$X X X X}.].A.[.}. XA./ J J J J J J J J )  X X X X X",
" X X X X X X X X X X X X X X X X Xr + + + + + + + + + + + ^.%X%X%X%X%X%X%X%X$X X X X X XA.A.]. XA.{. X X X X X X X X X X X X X X",
"M.M.M.M.M.M.M.M.M.M.M.M.M.M.M.M.+ + + + + + + + + + + + + + i %X%X%X%X%X%X%X+XM.M.M.M.M.M.F.A.A.A.V.M.M.M.M.M.M.M.M.M.M.M.M.M.M.",
"M.M.M.M.M.M.M.M.D D D D D D D D + + + + + + + + + + + + + + 6 i i XX%X%X%XoX`.M.M.M.M.M.M.B.V.V.A.V.M.M.M.M.M.M.M.M.M.M.M.M.b.,.",
"M.M.M.M.{ { { { > > > > > > : - + + + + + + + + + + + + + + + + + L.^.^.+X`.M.M.M.M.M.M.M.M.M.M.A.G.B.M.M.b.k.k.k.k.k.k.k.k.<.s ",
"M.M.M.M.> > > > > > > > > > - + + + + + + + + + + + + + + + + + + + + + M.M.M.M.M.M.M.M.M.M.M.M.A.A.F.M.M.,.s s s s s s s s s s ",
"M.M.{ > > > > > > > > > > X + + + + + + + + + + + + + + + + + + + + q M.M.M.M.M.M.M.M.M.M.M.M.M.M.F.h.s s s s s s s s s s k.M.M.",
"D D n > > > > > > > > > > X + + + + + + + + + + + + + + + + + + + t c.M.M.M.M.M.M.M.M.M.M.M.M.M.,.>.;.s k.k.k.k.k.k.k.k.k.m.M.M.",
"D k > > > > > > > > > > -   + + + + + + + + + + + + + + + + $ e e d.V.V.V.N.M.M.M.M.M.M.M.M.m.k.s =.3.:.M.M.M.M.M.M.M.M.M.M.M.M.",
"M.D > > > > > > > > > > + + + + + + + + + + + + + + + + + + e A.A.A.A.A.A.V.M.M.M.M.M.M.M.M.k.s s k.V.A.M.M.M.M.M.M.M.M.M.M.M.M.",
"M.M.M.M.M.D > > > > - + + + + + + + + + + + + + + + + + > > > > > a.A.A.A.A.A.A.A.V.k.s s s s s M.M.V.A.A.V.M.M.M.M.M.M.M.M.M.M.",
"M.M.M.M.M.l.{ { { { R + + + + + + + + + + + + + + o - - > > n { { n.V.V.V.V.V.V.A.s.=.s s s =.k.M.M.V.A.A.V.M.M.M.M.M.M.M.M.M.M.",
"M.M.M.M.M.M.M.M.M.c.t + + + + + q 7 5 5 q 7 5 5 q A D D D D [ M.M.M.M.M.M.b.k.k.h.;.X.,.,.>.s.V.V.N.V.A.A.V.M.M.M.M.M.M.M.M.M.M.",
"M.M.M.M.M.M.M.M.M.q + + + + + + M.U.J.J.M.U.J.J.M.M.M.M.M.M.M.M.M.M.M.M.M.,.s s s s ,.M.M.F.A.A.A.V.V.A.A.V.M.M.M.M.M.M.M.M.M.M.",
"M.M.M.M.M.M.M.M.M.q + + + + + + s s s s J.4 s s J.4 s s s s s s s s s s s s s s s k.M.M.M.M.M.M.A.A.A.A.A.V.M.M.M.M.M.M.M.M.M.M.",
"M.M.M.M.M.M.M.M.,.* + + + + + + s s s s J.4 s s J.4 s s s s s s s s s s s <.k.k.k.m.M.M.M.M.M.M.V.V.G.A.A.V.M.M.M.M.M.M.M.M.M.M.",
"M.M.M.M.M.b.k.k.< % + + + + # q ,...} } U.p.,.,.U.p.,.,.,.,.,.,.,.,.,.,.,.b.M.M.M.M.M.M.M.M.M.M.M.M.V.A.F.B.M.M.M.M.M.M.M.M.M.M.",
"M.M.M.M.M.,.s s + + + + + + q M.M.1.o.o.M.M.M.M.M.M.M.M.M.M.M.M.M.M.M.M.M.M.M.M.M.M.M.M.M.M.M.M.M.M.V.A.M.M.M.M.M.M.M.M.M.M.M.M.",
"M.M.M.M.s s < + + + + + + ( M.M.M.1.o.o.M.M.M.M.M.M.M.M.M.M.M.M.M.M.M.M.M.M.M.M.M.M.M.M.M.M.M.M.M.M.V.A.A.V.M.M.M.M.M.M.M.M.M.M.",
"t.t.r.,.s s < + + + + + F U t.t.1.&.o.o.t.t.t.t.t.t.t.t.t.t.t.t.t.t.t.t.t.t.t.t.t.t.t.t.t.t.t.t.t.t.x.A.A.x.t.t.t.t.t.t.t.t.t.t.",
"9.9.@.s s s 3 ; ; ; ; ; I I I I o.o.o.o.I I I I I I I I K K K K K K K K K K K K K K L I I I I I I I y.A.A.y.I I I I I I I I I I ",
"s s s s s s +.I I I I I I I I I o.o.o.o.I I I I I I I I > > > > > > > > > > > > > > M I I I I I I I y.A.A.y.I I I I I I I I I I ",
"s s s s s 9.I I I I I I I I 0.o.o.o.#.I I I I I > > > > > > > > > > > > > > > > > > > > > > > > > K y.A.A.y.I I I I I I I I I I ",
"s s s s 9.P I I I I I I I q.%.o.o.o.#.I I I L M > > > > > > > > > > > > > > > > > > > > > > > > > z N H A.y.I I I I I I I I I I ",
"s s  .+.I I I I I I I I I #.o.o.o.%.q.I I L B > > > > > > > > > > > > > > > > > > > > > > > > > > > l H A.y.I I I I I I I I I I ",
"s s +.I I I I I I I I I I #.o.o.o.0.I I I M > > > > > > > > > > > > > > > > > > > > > > > > > > > > H A.A.y.I I I I I I I I I I ",
"I I I I I I I I I I I I I #.o.o.o.0.I I > > > > > > > > > > > > > > > > > > > > > > > > > > > > I I I I A.A.z.I I I I I I I I I ",
"I I I I I I I I I I I I #.$.o.o.0.P L M > > > > > > > > > > > > > > > > > > > > > > > > > B K K I I I I y.C.S.z.I I I I I I I I ",
"I I I I I I I I I I P 0.o.o.$.#.I L B > > > > > > > > > > > > > > > > > > > > > > z M M M L I I I I I I I z.A.A.y.y.e.I I I I I ",
"I I I I I I I I I I 0.o.o.o.#.I I M > > > > > > > > > > > > > > > > > > > > > > > K I I I I I I I I I I I z.A.A.A.A.z.I I I I I ",
"I I I I I I I I I I 0.o.o.o.#.I I M > > > > > > > > > > > > > > > > > > I I I I I I I I I I I I I I I I I I y.A.A.A.A.A.A.A.A.A.",
"I I I I I I I I I q.%.o.o.o.#.I I L K K K K B > > > > > > > > > K K K K I I I I I I I I I I I I I I I I I I w.y.y.C.A.A.A.A.A.A.",
"I I I I I I I I 0.%.o.o.#.#.q.I I I I I I I L M M M M M M M M M I I I I I I I I I I I I I I I I I I I I I I I I I u.z.z.z.z.z.z.",
"I I I I I I I I o.o.o.o.I I I I I I I I I I I I I I I I I I I I I I I I I I I I I I I I I I I I I I I I I I I I I I I I I I I I "
};
