/* XPM */
static char *_8caf2bed3074f6f8954324214dcd1dfsWGiwklCFpq0dKKG[] = {
/* columns rows colors chars-per-pixel */
"64 64 124 2 ",
"   c #000000",
".  c #080606",
"X  c #090807",
"o  c #040A0B",
"O  c #0E0E0E",
"+  c #060E10",
"@  c #071113",
"#  c #081214",
"$  c #0D1719",
"%  c #0C1A1D",
"&  c #121212",
"*  c #1D1D1D",
"=  c #1F2020",
"-  c #112D33",
";  c #153036",
":  c #173339",
">  c #183439",
",  c #232323",
"<  c #292929",
"1  c #353535",
"2  c #3A3A3A",
"3  c #004E2A",
"4  c #1E454D",
"5  c #1F4B54",
"6  c #1F5757",
"7  c #214C56",
"8  c #234F59",
"9  c #245059",
"0  c #2F565E",
"q  c #275A65",
"w  c #285B66",
"e  c #295D69",
"r  c #2B616D",
"t  c #444444",
"y  c #4D4D4D",
"u  c #535353",
"i  c #595756",
"p  c #565D5F",
"a  c #5B5B5B",
"s  c #4E6A70",
"d  c #676767",
"f  c #686666",
"g  c #6D6D6D",
"h  c #757575",
"j  c #777878",
"k  c gray47",
"l  c #008B45",
"z  c #04844C",
"x  c #008A4A",
"c  c #089043",
"v  c #00934B",
"b  c #009D4C",
"n  c #048D50",
"m  c #0A935B",
"M  c #00AC4D",
"N  c #00BA4F",
"B  c #179D72",
"V  c #00D652",
"C  c #00DF53",
"Z  c #04DF5A",
"A  c #00E053",
"S  c #0CDF66",
"D  c #0CDF68",
"F  c #14DF75",
"G  c #0CE369",
"H  c #397F8E",
"J  c #447781",
"K  c #497D88",
"L  c #3B8494",
"P  c #3F8F9F",
"I  c #389094",
"U  c #1FA581",
"Y  c #24A989",
"T  c #29AD92",
"R  c #3F91A3",
"E  c #3ABBB1",
"W  c #428897",
"Q  c #408FA0",
"!  c #4192A2",
"~  c #459AAB",
"^  c #5DA3B2",
"/  c #1FDF88",
"(  c #3AD7B3",
")  c #3AE0B4",
"_  c #41C2BC",
"`  c #41E0BF",
"'  c #4DAEC2",
"]  c #4FB1C5",
"[  c #6ABACB",
"{  c #45C5C3",
"}  c #4ECDD3",
"|  c #57C4DB",
" . c #58C6DD",
".. c #59C8DF",
"X. c #44E0C4",
"o. c #4DE0D4",
"O. c #5AC9E1",
"+. c #59D7E7",
"@. c #5DD3EA",
"#. c #60D6EF",
"$. c #61DCF4",
"%. c #64DFF9",
"&. c #58E0E6",
"*. c #5AE3EA",
"=. c #60E0F3",
"-. c #64E0FA",
";. c #68E9FF",
":. c #8F8F8E",
">. c #939292",
",. c #949899",
"<. c #999999",
"1. c #A4A4A4",
"2. c #A8A7A7",
"3. c #AEAEAE",
"4. c #C5C5C5",
"5. c #C8C8C8",
"6. c #DFDFDF",
"7. c #E1E1E1",
"8. c #EDEDED",
"9. c #EFEFEF",
"0. c gray94",
"q. c #F6F6F6",
"w. c gray98",
"e. c white",
/* pixels */
"-.-.-.-.-.-.-.-.-.-.-.-.-.-.-.-.-.-.-.-.-.-.-.-.-.-.-.-.-.-.-.-.-.-.-.-.-.-.-.-.-.-.-.-.-.-.-.-.-.-.-.-.-.-.-.-.-.-.-.-.-.-.-.-.",
"-.-.-.-.-.-.-.-.-.-.-.-.-.-.-.-.-.-.-.-.-.-.-.-.-.-.-.-.-.-.-.-.-.-.-.-.-.-.-.-.-.-.-.-.-.-.-.-.-.-.-.-.-.-.-.-.-.-.-.-.-.-.-.-.",
"-.-.-.-.-.-.-.-.-.-.-.-.-.-.-.-.-.-.-.-.-.-.-.-.-.-.-.-.-.-.-.-.-.-.-.-.-.-.-.-.-.-.-.-.-.-.-.-.-.-.-.-.-.-.-.-.-.-.-.-.-.-.-.-.",
"-.-.-.-.-.-.-.-.-.-.-.-.-.-.-.-.-.-.-.-.-.-.-.-.-.-.-.-.-.-.-.-.-.-.-.-.-.-.-.-.-.-.-.-.-.-.-.-.-.-.-.-.-.-.-.-.-.-.-.-.-.-.-.-.",
"-.-.-.-.-.-.-.-.-.-.-.-.-.-.-.-.-.-.-.-.-.-.-.-.-.-.-.-.-.-.-.-.-.-.-.-.-.-.-.-.-.-.-.-.-.-.-.-.-.-.-.-.-.-.-.-.-.-.-.-.-.-.-.-.",
"-.-.-.-.-.-.-.-.-.-.-.-.-.-.-.-.-.-.-.-.-.-.-.-.-.-.-.-.-.-.-.-.-.-.-.-.-.-.-.-.-.-.-.-.-.-.-.-.-.-.-.-.-.-.-.-.-.-.-.-.-.-.-.-.",
"-.-.-.-.-.-.-.-.-.-.-.-.-.-.-.-.-.-.-.-.-.-.-.-.-.-.-.-.-.-.-.-.-.-.-.-.-.-.-.-.-.-.-.-.-.-.-.-.-.-.-.-.-.-.-.-.-.-.-.-.-.-.-.-.",
"-.-.-.-.-.-.-.-.-.-.-.-.-.-.-.-.-.-.-.-.-.-.-.-.-.-.-.$.O. . .O.$.-.-.-.-.-.#. . .#.-.-.-.-.-.-.-.-.-.-.-.-.-.-.-.-.-.-.-.-.-.-.",
"-.-.-.-.-.-.-.-.-.-.-.-.-.-.-.-.-.-.-.-.-.-.-.-.-.-.-. .: % % :  .-.-.-.-.-.~ % % ~ -.-.-.-.-.-.-.-.-.-.-.-.-.-.-.-.-.-.-.-.-.-.",
"-.-.-.-.-.-.-.-.-.-.-.-.-.-.-.-.-.-.-.-.-.-.-.-.-.-.' 4 o     o 4 ] ;.;.-.L ;     ; L -.-.-.-.-.-.-.-.-.-.-.-.-.-.-.-.-.-.-.-.-.",
"-.-.-.-.-.-.-.-.-.-.-.-.-.-.-.-.-.-.-.-.-.-.-.-.-.;.Q             q ! P P ;         ; ~ #.-.-.-.-.-.-.-.-.-.-.-.-.-.-.-.-.-.-.-.",
"-.-.-.-.-.-.-.-.-.-.-.-.-.-.-.-.-.-.-.-.-.-.-.-.-.;.!         . * = = = = X           %  .-.-.-.-.-.-.-.-.-.-.-.-.-.-.-.-.-.-.-.",
"-.-.-.-.-.-.-.-.-.-.-.-.-.-.-.-.-.-.-.-.-.-.-.-.-.;.!         * 4.7.7.7.6.u           %  .-.-.-.-.-.-.-.-.-.-.-.-.-.-.-.-.-.-.-.",
"-.-.-.-.-.-.-.-.-.-.-.-.-.-.-.-.-.-.-.-.-.-.-.-.-.-. .L #   1 3.q.e.e.e.e.5.d       : ~ #.-.-.-.-.-.-.-.-.-.-.-.-.-.-.-.-.-.-.-.",
"-.-.-.-.-.-.-.-.-.-.-.-.-.-.-.-.-.-.-.-.-.-.-.-.-.-...L @ 1 <.e.e.e.e.e.e.e.5.i i * 8 ;.-.-.-.-.-.-.-.-.-.-.-.-.-.-.-.-.-.-.-.-.",
"-.-.-.-.-.-.-.-.-.-.-.-.-.-.-.-.-.-.-.-.-.-.-.-.-.@.H . * 3.e.e.e.e.e.e.e.e.e.e.e.g 0 ..$.-.-.-.-.-.-.-.-.-.-.-.-.-.-.-.-.-.-.-.",
"-.-.-.-.-.-.-.-.-.-.-.-.-.-.-.-.-.-.-.-.-.-.-.-.%.r o * 4.q.e.e.e.e.e.e.e.e.e.e.e.9.,.> ..-.-.-.-.-.-.-.-.-.-.-.-.-.-.-.-.-.-.-.",
"-.-.-.-.-.-.-.-.-.-.-.-.-.-.-.-.-.-.-.-.-.-.-.-.-.7 1 3.q.e.e.e.e.e.e.e.e.e.e.e.e.e.1.%  .-.-.-.-.) ) -.-.-.-.-.-.-.-.-.-.-.-.-.",
"-.-.-.-.-.-.-.-.-.-.-.-.-.-.-.-.-.-.-.-.-.-.-.#.~ - i e.e.e.e.e.e.e.e.e.e.e.e.e.e.e.1.%  .-.-.=.X.F F X.=.-.-.-.-.-.-.-.-.-.-.-.",
"-.-.-.-.-.-.-.-.-.-.-.-.-.-.-.-.-.-.-.-.-.-.-. .% O g w.7.7.7.7.7.7.7.7.7.7.9.e.e.9.,.> ..-.-.&.D C C D &.-.-.-.-.-.-.-.-.-.-.-.",
"-.-.-.-.-.-.-.-.-.-.-.-.-.-.-.-.-.-.-.-.-.-.-.| % :.0.7.2 * * * * * * * * * g e.e.g 0 ..$.-.-.&.D C C D &.-.-.-.-.-.-.-.-.-.-.-.",
"-.-.-.-.-.-.-.-.-.-.-.-.-.-.-.-.-.-.-.-.-.;.] 4 o 2 a y X                   * i i K ] -.-.-.o./ Z C C Z / o.-.-.-.-.-.-.-.-.-.-.",
"-.-.-.-.-.-.-.-.-.-.-.-.-.-.-.-.-.-.-.-.-.' w                                     e ] -.-.-.` C C C C C A X.+._ _ _ } -.-.-.-.-.",
"-.-.-.-.-.-.-.-.-.-.-.-.-.-.-.-.-.-.-.-.%.9                                         9 %.-.-.` C C C C C V ( E x x x Y -.-.-.-.-.",
"-.-.-.-.-.-.-.-.-.-.-.-.-.-.-.-.-.-.-.-.%.8                                         8 %.-.-.` C C C A V b m m x x x Y -.-.-.-.-.",
"-.-.-.-.-.-.-.-.-.-.-.-.-.-.-.-.-.-.-.O.r %                                         9 -.-.-.` C C C A V v x x x x T } -.-.-.-.-.",
"-.-.-.-.-.-.-.-.-.-.-.-.-.-.-.-.-.-.-. .$                                           : ~ #.-.` C C A V N v x x x x _ -.-.-.-.-.-.",
"-.-.-.-.-.-.-.-.-.-.-.-.-.-.-.-.-.-.$.' $                                             %  .-.X.S C V N x x x x x m { -.-.-.-.-.-.",
"-.-.-.-.-.-.-.-.-.-.-.-.-.-.-.-.-.-.~ $                                               % | -.$.o.S M x x x x x m } $.-.-.-.-.-.-.",
"-.-.-.-.-.-.-.-.-.-.-.-.-.-.-.-.-.;.!                 & >.2.2.2.2.2.d                 o 4 7 L *.G M x x x T _ { $.-.-.-.-.-.-.-.",
"-.-.-.-.-.-.-.-.-.-.-.-.-.-.-.-.-.' w         X y i i g 9.e.e.e.e.e.5.i i a 2               ; I c l x n U } -.-.-.-.-.-.-.-.-.-.",
"-.-.-.-.-.-.-.-.-.-.-.-.-.-.-.-.%.9 X * * * * 2 7.e.e.e.e.e.e.e.e.e.e.e.e.e.3.* .                 3 z B +.-.-.-.-.-.-.-.-.-.-.-.",
"-.-.-.-.-.-.-.-.-.-.-.-.-.-.-.-.%.7 y 6.7.7.7.7.w.e.e.e.e.e.e.e.e.e.e.e.e.e.q.4.*                   6 +.%.-.-.-.-.-.-.-.-.-.-.-.",
"-.-.-.-.-.-.-.-.-.-.-.-.-.-.-.-.-.5 i e.e.e.e.e.e.e.e.e.e.e.e.e.e.e.e.e.e.e.e.7.*                   8 -.-.-.-.-.-.-.-.-.-.-.-.-.",
"-.-.-.-.-.-.-.-.-.-.-.-.-.-.-.$.~ s >.e.e.e.e.e.e.e.e.e.e.e.e.e.e.e.e.e.e.e.e.9.g *                 7 %.-.-.-.-.-.-.-.-.-.-.-.-.",
"-.-.-.-.-.-.-.-.-.-.-.-.-.-.$.' % 1.e.e.e.e.e.e.e.e.e.e.e.e.e.e.e.e.e.e.e.e.e.e.e.i               + r %.-.-.-.-.-.-.-.-.-.-.-.-.",
"-.-.-.-.-.-.-.-.-.-.-.-.-.-.~ $   2.e.e.e.e.e.e.e.e.e.e.e.e.e.e.e.e.e.e.e.e.e.e.e.i               H @.-.-.-.-.-.-.-.-.-.-.-.-.-.",
"-.-.-.-.-.-.-.-.-.-.-.-.-.;.! & >.7.e.e.e.e.e.e.e.e.e.e.e.e.e.e.e.e.e.e.e.e.e.e.e.4.2.>.& w ! ! !  .-.-.-.-.-.-.-.-.-.-.-.-.-.-.",
"-.-.-.-.-.-.-.-.-.-.-.-.-.' q * 7.e.e.e.e.e.e.e.e.e.e.e.e.e.e.e.e.e.e.e.e.e.e.e.e.e.e.7.* R ;.;.;.-.-.-.-.-.-.-.-.-.-.-.-.-.-.-.",
"-.-.-.-.-.-.-.-.-.-.-.-.%.9 . 2 7.e.e.e.e.e.e.e.e.e.e.e.e.e.e.e.e.e.e.e.e.e.e.e.e.e.e.7.2 W @.-.-.-.-.-.-.-.-.-.-.-.-.-.-.-.-.-.",
"-.-.-.-.-.-.-.-.-.-.-.-.%.7 y 7.w.e.e.e.e.e.e.e.e.e.e.e.e.e.e.e.e.e.e.e.e.e.e.e.e.e.e.w.7.p e %.-.-.-.-.-.-.-.-.-.-.-.-.-.-.-.-.",
"-.-.-.-.-.-.-.-.-.-.-.-.%.5 i e.e.e.e.e.e.e.e.e.e.e.e.e.e.e.e.e.e.e.e.e.e.e.e.e.e.e.e.e.e.i 5 -.-.-.-.-.-.-.-.-.-.-.-.-.-.-.-.-.",
"-.-.-.-.-.-.-.-.-.-.-.-.-.5 i e.e.e.e.e.e.e.e.e.e.e.e.e.e.e.e.e.e.e.e.e.e.e.e.e.e.e.e.e.e.i - ~ $.-.-.-.-.-.-.-.-.-.-.-.-.-.-.-.",
"-.-.-.-.-.-.-.-.-.-.-.$. .4 i e.e.e.e.e.e.e.e.e.e.e.e.e.e.e.e.e.e.e.e.e.e.e.e.e.e.e.e.e.e.g O % '  . .O.$.-.-.-.-.-.-.-.-.-.-.-.",
"-.-.-.-.-.-.-.-.-.-.-.O.:   i e.e.e.e.e.e.e.e.e.e.e.e.e.e.e.e.e.e.e.e.e.e.e.e.e.e.e.e.e.e.9.:.  $ % % :  .-.-.-.-.-.-.-.-.-.-.-.",
"-.-.-.-.-.-.-.-.-.-.;. .% f 5.e.e.e.e.e.e.e.e.e.e.e.e.e.e.e.e.e.e.e.e.e.e.e.e.e.e.e.e.e.e.<.2         o 4 ' ;.-.-.-.-.-.-.-.-.-.",
"[ [ [ [ [ [ [ [ [ [ [ ^ $ 2.e.e.e.e.e.e.e.e.e.e.e.e.e.e.e.e.e.e.e.e.e.e.e.e.e.e.e.e.7.2.2.1               J [ [ [ [ [ [ [ [ [ [ ",
"h h h h h h h h h h h d * >.9.e.e.e.e.e.e.e.e.e.e.e.e.e.e.e.e.e.e.e.e.e.e.e.e.e.e.9.>.                    y j h h h h h h h h h ",
"h h h h h h h h h h h h d 1 g e.e.e.e.e.e.e.e.e.e.e.e.e.e.e.e.e.e.e.e.e.e.e.e.e.e.g &                     y h h h h h h h h h h ",
"h h h h h h h h h h h h h , * g 9.e.5.i i i >.e.e.e.e.e.e.e.e.e.e.e.e.e.e.e.e.e.e.i                       y h h h h h h h h h h ",
"h h h h h h h h h h h h h t & * 7.5.d       1 3.q.e.e.e.e.e.e.e.e.e.e.e.e.e.e.q.3.2                 O < < i h h h h h h h h h h ",
"h h h h h h h h h h h h h h y < 4.u           , 7.e.e.e.e.e.e.e.e.e.e.e.e.e.e.7.,                 . 1 h h h h h h h h h h h h h ",
"h h h h h h h h h h h h h h h a < X           * 7.e.e.e.e.e.e.e.e.e.e.e.e.e.e.6.*                 t g h h h h h h h h h h h h h ",
"h h h h h h h h h h h h h h h h y *           * 7.e.e.e.e.e.e.e.e.e.e.e.e.>.i y X         1 y y y d h h h h h h h h h h h h h h ",
"h h h h h h h h h h h h h h h h h t *         & >.2.1.2.2.2.2.2.2.2.2.2.1.u , , < < < < < a k h h h h h h h h h h h h h h h h h ",
"h h h h h h h h h h h h h h h h h h u O O O O O O O O O O O O O O O O O & u h h h h h h h h h h h h h h h h h h h h h h h h h h ",
"h h h h h h h h h h h h h h h h h h h d d d d d d d d d d d d d d d d d d h h h h h h h h h h h h h h h h h h h h h h h h h h h ",
"h h h h h h h h h h h h h h h h h h h h h h h h h h h h h h h h h h h h h h h h h h h h h h h h h h h h h h h h h h h h h h h h ",
"h h h h h h h h h h h h h h h h h h h h h h h h h h h h h h h h h h h h h h h h h h h h h h h h h h h h h h h h h h h h h h h h ",
"h h h h h h h h h h h h h h h h h h h h h h h h h h h h h h h h h h h h h h h h h h h h h h h h h h h h h h h h h h h h h h h h ",
"h h h h h h h h h h h h h h h h h h h h h h h h h h h h h h h h h h h h h h h h h h h h h h h h h h h h h h h h h h h h h h h h ",
"h h h h h h h h h h h h h h h h h h h h h h h h h h h h h h h h h h h h h h h h h h h h h h h h h h h h h h h h h h h h h h h h ",
"h h h h h h h h h h h h h h h h h h h h h h h h h h h h h h h h h h h h h h h h h h h h h h h h h h h h h h h h h h h h h h h h ",
"h h h h h h h h h h h h h h h h h h h h h h h h h h h h h h h h h h h h h h h h h h h h h h h h h h h h h h h h h h h h h h h h "
};
