/* XPM */
static char *ce445a1adc394c97d6491696861703e9Gj3m98ubFJzzCaW3[] = {
/* columns rows colors chars-per-pixel */
"64 64 183 2 ",
"   c #92E8FF",
".  c #93EAFF",
"X  c #91E5FB",
"o  c #88CFE4",
"O  c #4A3338",
"+  c #87CCE0",
"@  c #40191B",
"#  c #401A1D",
"$  c #88CEE2",
"%  c #93ECFF",
"&  c #91E6FD",
"*  c #87CCE1",
"=  c #3F1719",
"-  c #7DB4C5",
";  c #4B353A",
":  c #401A1E",
">  c #8AD3E8",
",  c #411B1F",
"<  c #360102",
"1  c #3E171B",
"2  c #401A1F",
"3  c #3F181B",
"4  c #370000",
"5  c #4B1903",
"6  c #380000",
"7  c #7EB5C7",
"8  c #7FB6C7",
"9  c #45221B",
"0  c #3E0B00",
"q  c #4C1B03",
"w  c #4B1B03",
"e  c #3D0B00",
"r  c #3B0900",
"t  c #D3C725",
"y  c #4A1905",
"u  c #350003",
"i  c #3F171B",
"p  c #5D4603",
"a  c #725F05",
"s  c #D8D025",
"d  c #614C00",
"f  c #624E00",
"g  c #5E4704",
"h  c #44201B",
"j  c #3E161B",
"k  c #340003",
"l  c #3F1A1E",
"z  c #4E1D04",
"x  c #EAE42B",
"c  c #EDE82C",
"v  c #643A0B",
"b  c #4B1A05",
"n  c #411200",
"m  c #7B6E06",
"M  c #EFEE2B",
"N  c #7B6D06",
"B  c #675700",
"V  c #695900",
"C  c #655100",
"Z  c #512403",
"A  c #4D1D04",
"S  c #4D1D05",
"D  c #3F181D",
"F  c #4D1C02",
"G  c #E8E22A",
"H  c #FFFF30",
"J  c #ECE72C",
"K  c #715E05",
"L  c #604C00",
"P  c #655400",
"I  c #796B05",
"U  c #EEEC2B",
"Y  c #665500",
"T  c #665600",
"R  c #766705",
"E  c #D7D025",
"W  c #E8E22B",
"Q  c #EBE62B",
"!  c #4A333A",
"~  c #54321E",
"^  c #D3C929",
"/  c #E9E32B",
"(  c #DBD426",
")  c #887B0A",
"_  c #7A6C05",
"`  c #8A7E0B",
"'  c #F0EE2B",
"]  c #F1EF2B",
"[  c #FFFE30",
"{  c #89D1E6",
"}  c #80B7C6",
"|  c #613608",
" . c #EDEB2A",
".. c #EFED2B",
"X. c #FDFD2F",
"o. c #633809",
"O. c #93EBFF",
"+. c #3E181E",
"@. c #543220",
"#. c #D4C929",
"$. c #ECE72B",
"%. c #FDFD30",
"&. c #FDFC30",
"*. c #D2C829",
"=. c #87CDE2",
"-. c #E7E02A",
";. c #FCFB2F",
":. c #FEFD30",
">. c #61360A",
",. c #D4C926",
"<. c #603508",
"1. c #62380B",
"2. c #5F340A",
"3. c #D6CB26",
"4. c #D4CA29",
"5. c #4B1B05",
"6. c #FFFF31",
"7. c #FCFC2F",
"8. c #49333A",
"9. c #F2F12C",
"0. c #D9D125",
"q. c #502302",
"w. c #431F19",
"e. c #7EB4C5",
"r. c #442019",
"t. c #4B343A",
"y. c #3B0700",
"u. c #3A0700",
"i. c #3F1A1F",
"p. c #756306",
"a. c #532704",
"s. c #553320",
"d. c #E8E12B",
"f. c #FEFE30",
"g. c #F0EF2B",
"h. c #ECEA2A",
"j. c #E9E32A",
"k. c #D3C829",
"l. c #53301E",
"z. c #48313A",
"x. c #4B1A03",
"c. c #D7CF25",
"v. c #EEED2B",
"b. c #633707",
"n. c #7A6C06",
"m. c #675800",
"M. c #685800",
"N. c #4D1C04",
"B. c #6A5A01",
"V. c #7EB5C5",
"C. c #DEDB25",
"Z. c #776905",
"A. c #EDEB2B",
"S. c #F2F02C",
"D. c #DDD925",
"F. c #614D00",
"G. c #FEFF30",
"H. c #6B5B01",
"J. c #624D00",
"K. c #3B0800",
"L. c #401B1F",
"P. c #634F00",
"I. c #45211B",
"U. c #685900",
"Y. c #6B5C01",
"T. c #604B00",
"R. c #8B7F0B",
"E. c #D6CE25",
"W. c #4A1903",
"Q. c #3E191E",
"!. c #EBE52B",
"~. c #603507",
"^. c #877A0A",
"/. c #54311E",
"(. c #522502",
"). c #431E19",
"_. c #786A05",
"`. c #6A5B01",
"'. c #4A343A",
"]. c #401100",
"[. c #655500",
"{. c #40191D",
"}. c white",
/* pixels */
"                                                                                                                                ",
"                                                                                                                                ",
"                                    . .         . .                                                                             ",
"                                  X o o X     X o o X                                                                           ",
"                                . o O O o . . o O O o .                                                                         ",
"                                . + @ @ + . . + @ @ + .                                                                         ",
"                    . . . . . . . + # # $ % % $ # # + . . . . . . .                                                             ",
"                  X o + + + + o & * # = - $ $ - = # * & o + + + + o X                                                           ",
"                . o ; # : : # ; > o , < 1 2 , 3 < , o > ; # : : # ; o .                                                         ",
"                . + # 4 5 5 6 = 7 8 9 0 q w e r r 9 8 7 = 6 5 5 4 # + .                                                         ",
"                . + : 5 t t y u i 9 p a s s a d f g h j k y t t 5 : + .                                                         ",
"                . + l z x c v b e n f m M M N B V C Z A S v c x z l + .                                                         ",
"                . + D F G H J s K L P I U U I Y T R E W W Q H G F D + .                                                         ",
"                . o ! ~ ^ G / ( ) _ I ` ' ' ` I I ` ] [ Q W G ^ ~ ! o .                                                         ",
"                  X { } ~ F q | ( M  ...X.X... . .M H Q o.q F ~ } { X                                                           ",
"                    O.{ ! D +.@.#.$.%.H H H H H H &.Q *.@.+.D ! { O.                                                            ",
"                      X o + =.} @.o.x H H H H H H x o.@.} =.+ o X                                                               ",
"                        . . % =.+.q -.H H ;.x x :.-.q +.=.% . .                                                                 ",
"                            . + : A -.H H x >.>.Q W A : + .                                                                     ",
"                            . + : A -.H H x >.>.Q W A : + .                                                                     ",
"                            . + : A -.H H ;.x x H W q +.=.O.                                                                    ",
"                            . + : A -.H H H H %.Q ,.<.@.} { X                                                                   ",
"                            . + : A -.H H H H x 1.2.3.4.~ ! o .                                                                 ",
"                            . + : A -.H H H H -.5.5.x x F D + .                                                                 ",
"                            . + D F G 6.H H 6.W 5.5.W W q +.=.O.                                                                ",
"                            . o ! ~ ^ G -.-.W ,.2.1.Q Q o.@.} { X                                                               ",
"                              X { } ~ F A z S >.,.Q 7.7.$.4.~ 8.{ O.                                                            ",
"                                O.{ ! D 2 1 k S W 6.H X.9.0.q.w.e.{ X                                                           ",
"                                  X o + $ - 1 z -.H H ..` R C g r.t.o .                                                         ",
"                                    . . % $ 2 A -.H H  .I T V f y.# + .                                                         ",
"                                        . + : A -.H H  .I Y B d u.i.=.O.                                                        ",
"                                        . + : A -.H H ..` I N p.a.s.} { X                                                       ",
"                                        . + l z d.6.H f.g.U  .h.j.k.l.z.{ O.                                                    ",
"                                        . + : x.c.v. . .U g.f.H 6.Q b.l.} { X                                                   ",
"                                        . + , e a N n.n.I ` ..H H ;.Q k.~ ! o .                                                 ",
"                                        . + , r d B B B Y I  .H H H 6.G F D + .                                                 ",
"                                        . + , r d m.M.M.B n. .H H H H -.N.i.$ O.                                                ",
"                                        . + , e a I B.M.B n. .H H H H G a.h V.{ X                                               ",
"                                        . + : x.s C.Z.T Y I  .H H H 6.A.p.p r.t.o .                                             ",
"                                        . + l z / S.` I I ` ..H H X.' D.I F.y.# + .                                             ",
"                                        . + : A -.G... . ...X.H H ..` Z.H.J.K.L.$ O.                                            ",
"                                        . + : A -.H H H H H H H H  .I T M.P.n I.V.{ X                                           ",
"                                        O.=.+.q -.H H H H H H H H  .I T M.B P.g r.t.o .                                         ",
"                                      X { } @.o.x f... . ...X.H H ..` Z.B.M.V f y.# + .                                         ",
"                                    . o ! ~ k.Q f.g.` I I ` ' 6.H X.' D.Z.T U.J.K.L.$ O.                                        ",
"                                    . + D F G H g.D.Z.T T Z.D.' X.H 6.' ` Z.H.P.n I.V.{ X                                       ",
"                                    . + : A d.] ` Z.B.M.M.B.Z.` ..H H X.' D.Z.P P.g r.t.o .                                     ",
"                                    . + : A W v.I T M.M.M.M.T I  .H H H 6.' ` Z.Y.f y.# + .                                     ",
"                                    . + : A W v.I T M.M.M.M.B n. .H H H H X.' D.Z.T.r , + .                                     ",
"                                    . + : A d.] ` Z.B.M.M.M.B n. .H H H H H 6.' R.K e , + .                                     ",
"                                    . + : A -.G.' D.Z.T B B Y I  .H H H H H H X.g.E.W.Q.=.O.                                    ",
"                                    . + : A -.H 6.' ` I n.n.I ` ..H H H H H H H 6.!.o.@.} { X                                   ",
"                                    . + : A -.H H X... . . . ...X.H H H H H H H H %.$.#.l.z.{ O.                                ",
"                                    . + : A -.H H H H H H H H H H H H X... . . . . .M ( ~.l.} { X                               ",
"                                    . + l z d.6.H H H H H H H H H H 6.' ` I n.n.n.n.I ^.( #./.8.{ O.                            ",
"                                    . + : x.c.v. ...X.H H H H H H X.' D.Z.T B B B B Y I ' x (.).e.{ X                           ",
"                                    . + , e a N I ` ..H H H H H H ..` Z.B.M.M.M.M.M.T I U A.p.p r.t.o .                         ",
"                                    . + , r d B Y I  .H H H H H H  .I T M.M.M.M.M.B.Z.` g.U N d y.# + .                         ",
"                                    O.$ L.K.J.U.B n. .H H H H H H  .I T M.M.M.M.B _.D.g.H U N d K.L.$ O.                        ",
"                                  X { V.I.n P.U.B n. .H H H H H H ..` Z.B.M.M.M.B n.U H g.D._.f n I.V.{ X                       ",
"                                . o t.r.g P.B M.T I  .H H H H H H f.g.D.Z.T B B Y I U g.` Z.`.B P.g r.'.{ O.                    ",
"                                . + # y.f V M.B.Z.` ..f... . . . ...H g.` I n.n.I ` g.U I T M.M.V P.].r.e.{ X                   ",
"                                . + , r J.U.B _.D.g.f...` I n.n.I ` ..f... . . . ...f. .n.B M.M.M.B P.g r.'.o .                 ",
"                                . + , r J.U.B n.U 6.H  .I [.B B [.I  .H H H H H H H H  .n.B M.M.M.M.V f y.{.+ .                 "
};
