/* XPM */
static char *_9983dfc99fc4efebe426a15eb5325dczphpViGMAUt2eCCb[] = {
/* columns rows colors chars-per-pixel */
"64 64 171 2 ",
"   c #051F05",
".  c #25150B",
"X  c #1A3315",
"o  c #2E2C22",
"O  c #4F2B00",
"+  c #502600",
"@  c #502900",
"#  c #4D3703",
"$  c #4E3F1D",
"%  c #6D3E1F",
"&  c #723E10",
"*  c #7A3C2A",
"=  c #126412",
"-  c #3F7E12",
";  c #4B4206",
":  c #48560A",
">  c #46590A",
",  c #505C0F",
"<  c #684C14",
"1  c #436C0D",
"2  c #41720F",
"3  c #417811",
"4  c #71502A",
"5  c #7A5B2B",
"6  c #785432",
"7  c #5E7B2A",
"8  c #666B2A",
"9  c #545F54",
"0  c #83491E",
"q  c #81511F",
"w  c #8A4A26",
"e  c #8A522A",
"r  c #96562A",
"t  c #9F5B2E",
"y  c #935430",
"u  c #A0572C",
"i  c #A15A2E",
"p  c #99632E",
"a  c #936B2E",
"s  c #847D2D",
"d  c #A66338",
"f  c #8A735E",
"g  c #AB6F47",
"h  c #AD7B58",
"j  c #1A9A1B",
"k  c #399D18",
"l  c #1CB91E",
"z  c #36A71A",
"x  c #35B21D",
"c  c #1FB720",
"v  c #27A324",
"b  c #459720",
"n  c #768D2C",
"m  c #798B2D",
"M  c #69982B",
"N  c #75912D",
"B  c #46AD29",
"V  c #59AF2B",
"C  c #46B12A",
"Z  c #5AB32C",
"A  c #53BC2B",
"S  c #47B237",
"D  c #31C420",
"F  c #39CA27",
"G  c #27D525",
"H  c #25DE27",
"J  c #2DDB26",
"K  c #32DC2A",
"L  c #31D33B",
"P  c #2CE327",
"I  c #2BEC2A",
"U  c #34E42C",
"Y  c #31EB2D",
"T  c #25F327",
"R  c #27F329",
"E  c #29F12A",
"W  c #3BE734",
"Q  c #34EA30",
"!  c #3AEA35",
"~  c #48CA2B",
"^  c #4ACA2C",
"/  c #52CB3B",
"(  c #49DF3A",
")  c #59BF45",
"_  c #73AF4B",
"`  c #6BB145",
"'  c #2CEB44",
"]  c #34EE44",
"[  c #3BF044",
"{  c #58D645",
"}  c #5EDE4D",
"|  c #60DE4E",
" . c #6CDA56",
".. c #73D85B",
"X. c #4BE541",
"o. c #4CE841",
"O. c #5AE04A",
"+. c #42F344",
"@. c #819C4D",
"#. c #8E8F53",
"$. c #9C845A",
"%. c #969459",
"&. c #90BA5E",
"*. c #868063",
"=. c #B4956F",
"-. c #9DB263",
";. c #9BAE74",
":. c #ADA96B",
">. c #B0AB78",
",. c #B6A87E",
"<. c #C59678",
"1. c #C2A97E",
"2. c #83CB5F",
"3. c #81C863",
"4. c #8DCE6C",
"5. c #94CB6F",
"6. c #83D265",
"7. c #95CC71",
"8. c #A2C77A",
"9. c #778584",
"0. c #619DB6",
"q. c #5EA0BC",
"w. c #43B5CA",
"e. c #4EB7E8",
"r. c #45BCF6",
"t. c #3FC7E5",
"y. c #3EC0FF",
"u. c #41C8E5",
"i. c #55CEE5",
"p. c #44C2FF",
"a. c #4BC4FF",
"s. c #53C0F6",
"d. c #5AC9FF",
"f. c #7BDBE5",
"g. c #6ED0FF",
"h. c #7ED5FF",
"j. c #848A86",
"k. c #AFA781",
"l. c #BBAE83",
"z. c #BDB382",
"x. c #BDB489",
"c. c #BCBD8B",
"v. c #B1B5AF",
"b. c #C7A783",
"n. c #C3B086",
"m. c #C4B58A",
"M. c #C2BA8E",
"N. c #C4BB90",
"B. c #C8BA93",
"V. c #B2C184",
"C. c #9AC2D2",
"Z. c #80D4E5",
"A. c #86D7FF",
"S. c #88D8FF",
"D. c #96DDFF",
"F. c #B5DCEF",
"G. c #ABEAE5",
"H. c #B2E6FF",
"J. c #BDE9FF",
"K. c #D1F7E5",
"L. c #C4ECFF",
"P. c #D5F1FF",
"I. c #F3EBE6",
"U. c #E5FDE5",
"Y. c #E9FFE5",
"T. c #FCF3EE",
"R. c #E7F7FF",
"E. c #E8F7FF",
"W. c #E9F8FF",
"Q. c #F3FBFF",
"!. c #FFFFFF",
/* pixels */
"p.p.p.p.p.p.p.p.p.p.p.p.p.p.p.p.p.p.p.p.p.p.p.p.p.p.p.p.p.p.p.p.p.p.p.p.p.p.p.p.p.p.p.p.p.p.p.p.p.p.p.p.p.p.p.p.p.p.p.p.p.p.p.p.",
"p.p.p.p.p.p.p.p.p.p.p.p.p.p.p.p.p.p.p.p.p.p.p.p.p.p.p.p.p.p.p.p.p.p.p.p.p.p.p.p.p.p.p.p.p.p.p.p.p.p.p.p.p.p.p.p.p.p.p.p.p.p.p.p.",
"p.p.p.p.p.p.p.p.p.p.p.p.p.p.p.p.p.p.p.p.p.p.p.p.p.p.p.p.p.p.p.p.p.p.p.p.p.p.p.p.p.p.p.p.p.p.p.p.p.p.p.p.p.p.p.p.p.p.p.p.p.p.p.p.",
"p.p.p.p.p.p.p.p.p.p.p.p.p.p.p.p.p.p.p.p.p.p.p.p.p.p.p.p.p.p.p.p.p.p.p.p.p.p.p.p.p.p.p.p.p.p.p.p.p.p.p.p.p.p.p.p.p.p.p.p.p.p.p.p.",
"p.p.p.p.p.p.p.p.p.p.p.p.p.p.p.p.p.p.p.p.p.p.p.p.p.p.p.p.p.p.p.p.p.p.p.p.p.p.p.p.p.p.p.p.p.p.p.p.p.p.p.p.p.p.p.p.p.p.p.p.p.p.p.p.",
"p.p.p.p.p.p.p.p.p.p.p.p.p.p.p.p.p.p.p.p.p.p.p.p.p.p.p.p.p.p.p.p.p.p.p.p.p.p.p.p.p.p.p.p.p.p.p.p.p.p.p.p.p.p.p.p.p.p.p.p.p.p.p.p.",
"p.p.p.a.h.S.g.p.p.p.d.S.S.d.p.p.p.g.S.h.a.p.p.a.h.S.g.p.p.p.d.S.S.d.p.p.p.g.S.h.a.p.p.a.h.S.g.p.p.p.d.S.S.d.p.p.p.g.S.h.a.p.p.p.",
"d.d.d.g.W.!.L.d.d.d.D.!.!.D.d.d.d.L.!.W.g.d.d.g.W.!.L.d.d.d.D.!.!.D.d.d.d.L.!.W.g.d.d.g.W.!.L.d.d.d.D.!.!.D.d.d.d.L.!.W.g.d.d.d.",
"E.E.R.W.!.!.Q.E.E.R.Q.!.!.Q.R.E.E.Q.!.!.W.R.R.W.!.!.Q.E.E.R.Q.!.!.Q.R.E.E.Q.!.!.W.R.R.W.!.!.Q.E.E.R.Q.!.!.Q.R.E.E.Q.!.!.W.R.E.E.",
"S.S.S.D.Q.!.P.S.S.A.H.!.!.H.A.S.S.P.!.Q.D.S.S.D.Q.!.P.S.S.A.H.!.!.H.A.S.S.P.!.Q.D.S.S.D.Q.!.P.S.S.A.H.!.!.H.A.S.S.P.!.Q.D.S.S.S.",
"p.p.y.d.W.!.J.p.p.y.A.!.!.A.y.p.p.J.!.W.d.y.y.d.W.!.J.p.p.y.A.!.!.A.y.p.p.J.!.W.d.y.y.d.W.!.J.p.p.y.A.!.!.A.y.p.p.J.!.W.d.y.p.p.",
"p.p.p.d.W.!.J.p.p.p.S.!.!.S.p.p.p.J.!.W.d.p.p.d.W.!.J.p.p.p.S.!.!.S.p.p.p.J.!.W.d.p.p.d.W.T.F.p.e.r.S.!.!.S.p.p.p.J.!.W.d.p.p.p.",
"p.p.p.d.W.!.J.p.p.p.S.!.!.S.p.p.p.J.!.W.d.p.p.d.W.!.J.p.p.p.S.!.!.S.p.p.p.J.!.W.d.p.p.d.E.b.j.e.f q.S.!.!.S.p.p.p.J.!.W.d.p.p.p.",
"p.p.p.d.W.!.J.p.p.p.S.!.!.S.p.p.p.J.!.W.d.p.p.d.W.!.J.p.p.p.S.!.!.S.p.p.p.J.!.W.d.p.p.d.W.<.6 9 y 0.S.!.!.S.p.p.p.J.!.W.d.p.p.p.",
"p.p.p.d.W.!.J.p.p.p.A.!.!.A.p.p.p.J.!.W.d.p.p.d.W.!.J.p.p.p.A.!.!.A.p.p.p.J.!.W.d.p.p.s.v.h w & r 9.C.!.!.S.p.p.p.J.!.W.d.p.p.p.",
"u.u.t.i.K.Y.G.u.u.t.f.U.U.f.t.u.u.G.Y.K.i.t.t.i.K.Y.G.u.u.t.f.U.U.f.t.u.u.G.Y.K.i.t.u.w.$ 0 i t e r =.I.I.Z.t.u.u.G.Y.K.i.t.u.u.",
"' ' ' ' +.+.[ ' ' ' ] +.+.] ' ' ' [ +.+.' ' ' ' +.+.[ ' ' ' ] +.+.] ' ' ' [ +.+.' ' ' L ; 0 i e . % d g g ) ' ' ' [ +.+.' ' ' ' ",
"E E E E E R E E E E E R R E E E E E R E E E E E E R E E E E E R R E E E E E R R E k 1 1 # 0 i r % w u u u A R E E E R E E E E E ",
"E E E E E E E E E E E E E E E E E E E E E E E E E E E E E E E E E E E E E E E E E k : O O 0 i t i s N N N ~ E E E E E E E E E E ",
"E E E E E E E E E E E E E E E E E E E E E E E E E E E E E E E E E E E E E E E I J J k O O 0 i t t A R E E E E E E E E E E E E E ",
"E E E E E E E E E E E E E E E E E E E E E E E E E E E I E E E E E E E E E E E J > ; # O @ 0 i t t A R E E E E E E E E E E E E E ",
"E E E E E E E E E E E E E E E E E E E E E E E E E R D 2 2 1 z Y M n N N N N N m q 0 0 0 0 r t t t A R E E E E E E E E E E E E E ",
"E E E E E E E E E E E E E E E E E E E E E E E E E D 3 @ + + , V p u u u u u u u u i i i i t t t t A R E E E E E E E E E E E E E ",
"E E E E E E E E E E E E E E E E E E E E E E E E E 2 @ O O # < t t t t t t t t t t t t t t t t t t A R E E E E E E E E E E E E E ",
"E E E E E E E E E E E E E E E E E E E E E E E E E 2 @ O O k V t t t t t t t t t t t t t t t t t t A R E E E E E E E E E E E E E ",
"E E E E E E E E E E E E E E E E E E E E E E D - P D - O O x ^ t t t t t t t t t t t t t t t t t t A R R R E E E E E E E E E E E ",
"E E E E E E E E E E E E E E E E E E E E E E D 3 z x - # 1 D A t t t t t t t t t t t t t t t t t t M C C C K E E E E E E E E E E ",
"E E E E E E E E E E E E E E E E E E E E E E E J > ; ; > J R A t t t t t t t t t t t t t t t t t a 5 4 4 * C R E E E E E E E E E ",
"E E E E E E E E E E E E E E E E E E E E E E E I J J J J I R A t t t t t t t t t t t t t t t u a ~ K K F 4 C R E E E E E E E E E ",
"E E E E E E E E E E E E E E E E E E E E E E E E E E E E E R A t u y w e V A A A A A A Z p u u t m ~ D 3 B K E E E E E E E E E E ",
"E E E E E E E E E E E E E E E E E E E E E E E E E E E E E R A p m 5 * 4 K R R R R R R Y M N N m t A D - P E E E E E E E E E E E ",
"E E E E E E E E E E E E E E E E E E E E E E E E E E E E E Y Z s U 7 * 8 K E E E E E E E E E I F s ^ R E E E E E E E E E E E E E ",
"E E E E E E E E E E E E E E E E E E E E E E E E E E E E E M N U I 7 8 K I E E E E E E E E R x : F I E E E E E E E E E E E E E E ",
"E E E E E E E E E E E E E E E E E E E E E E E E E E E E E m m P - b F E E E E E E E E E E E J x I E E E E E E E E E E E E E E E ",
"E E E E E E E E E E E E E E E E E E E E E E E E E E E I x M Z P - D R E E E E E E E E E E E E R E E E E E E E E E E E E E E E E ",
"E E E E E E E E E E E E E E E E E E E E E E E E E E E J > x R E E E E E E E E E E E E E E E E E E E E E E E E E E E E E E E E E ",
"E E E E E E E E E E E E E E E E E E E E E E E E E E E I J I E E E E E E E E E E E E E E E E E E E E E E E E E E E E E E E E E E ",
"E E E E E E E E E E E E E E E E E E E E E E E E E E E E E E E E E E E E E E E E E E E E E E E E E E E E E E E E E E E E E E E E ",
"E E E E E E E E E E E E E E E E E E E E E E E E E E E E E E E E E E E E E E E E E E E E E E E E E E E E E E E E E E E E E E E E ",
"E E E E E E E E E E E E E E E E E E E E E E E E E E E E E Y Y E ! Y E E E E E E E E E E E E E E E E E E E E E E E E E E E E E E ",
"E E E E E E E E E E E E E E E E E E E E E E E E E E E E E ` ` ! 8.O.R E E E E E E E E E E E E E E E E E E E E E E E E E E E E E ",
"E E E E E E E E E E E E E E E E E E E E E E E E E E E E E _ %.&.c.} R E E E E E E E E E E E E E E E E E E E E E E E E E E E E E ",
"E E E E E E E E E E E E E E E E E E E E E E E E E E E E E _ =.b.M.2.( E E E E E E E E E E E E E E E E E E E E E E E E E E E E E ",
"E E E E E E E E E E E E E E E E E E E E E E E E E E Y ! ! 7.x.k.M.b.&.W E E E E E E E E E E E E E E E E E E E E E E E E E E E E ",
"E E E E E E E E E E E E E E E E E E E E E E E E E R O.V.V.V.*.o k.M.z.-.W E E E E E E E E E E E E E E E E E E E E E E E E E E E ",
"E E E E E E E E E E E E E E E E E E E E E E E E E R | B.B.N.>.*.x.N.n.:.W E E E E E E E E E E E E E E E E E E E E E E E E E E E ",
"E E E E E E E E E E E E E E E E E E E E E E E E E R X.4.4.>.m.N.B.B.n.:.W E E E E E E E E E E E E E E E E E E E E E E E E E E E ",
"E E E E E E E E E E E E E E E E E E E E E E E E E E Y W W &.1.B.B.B.z.-.W E E E E E E E E E E E E E E E E E E E E E E E E E E E ",
"E E E E E E E E E E E E E E E E E E E E E E E E E R { :.:.:.1.B.B.B.5.W E E E E E E E E E E E E E E E E E E E E E E E E E E E E ",
"E E E E E E E E E E E E E E E E E E R Q 6.4.4.4.4.4.7.n.n.n.m.B.B.B.4.E E E E E E E E E E E E E E E E E E E E E E E E E E E E E ",
"E E E E E E E E E E E E E E E E E E !  .c.B.B.B.B.B.B.B.B.B.B.B.B.B.4.E E E E E E E E E E E E E E E E E E E E E E E E E E E E E ",
"E E E E E E E E E E E E E E E E E R | M.B.B.B.B.M.M.M.B.B.B.B.B.B.B.4.E E E E E E E E E E E E E E E E E E E E E E E E E E E E E ",
"E E E E E E E E E E E E E E E E E R | N.B.B.B.B.B.B.B.B.N.N.N.B.B.B.4.E E E E E E E E E E E E E E E E E E E E E E E E E E E E E ",
"E E E E E E E E E E E E E E E E R T } N.B.N.N.N.B.B.B.B.M.N.N.B.B.B.4.E E E E E E E E E E E E E E E E E E E E E E E E E E E E E ",
"E E E E E E E E E E E E E E E I O.| 6.M.M.l.,.,.M.B.M.M.M.M.B.B.B.B.4.E E E E E E E E E E E E E E E E E E E E E E E E E E E E E ",
"E E E E E E E E E E E E E E I X.8.V.V.V.x.=.$.$.x.N.N.M.M.M.B.B.B.B.4.E E E E E E E E E E E E E E E E E E E E E E E E E E E E E ",
"E E E E E E E E E E E E E R O.8.X.! ! ( %.$.$.$.x.N.N.N.N.N.B.B.B.B.4.E E E E E E E E E E E E E E E E E E E E E E E E E E E E E ",
"E E E E E E E E E E E E E R | M.7.o.R U #.` / / } | | | | } 6.B.B.6. .6.Q R E E E E E E E E E E E E E E E E E E E E E E E E E E ",
"E E E E E E E E E E E E E R X.4.4.S l U #./ R R R R R R R R X.7.c.6. .4. .! E E E E E E E E E E E E E E E E E E E E E E E E E E ",
"E E E E E E E E E E E E E E E E E = = U @.S H E E E E E E E E ! 8.M.4.W ;.{ R E E E E E E E E E E E E E E E E E E E E E E E E E ",
"E E E E E E E E E E E E E E E E E H H I U = = E E E E E E E E E ! 7.4.G X v R E E E E E E E E E E E E E E E E E E E E E E E E E ",
"E E E E E E E E E E E E E E E E E E E E E c c E E E E E E E E E E X...3.v G E E E E E E E E E E E E E E E E E E E E E E E E E E ",
"E E E E E E E E E E E E E E E E E E E E E R R E E E E E E E E E E R X.3.v G E E E E E E E E E E E E E E E E E E E E E E E E E E ",
"E E E E E E E E E E E E E E E E E E E E E E E E E E E E E E E E E E E G   j R E E E E E E E E E E E E E E E E E E E E E E E E E "
};
