/* XPM */
static char *_7e543e4acbf40acefed88957b5c2ba9sQk80cRNdThAzQ7J[] = {
/* columns rows colors chars-per-pixel */
"64 64 171 2 ",
"   c #6DB5FE",
".  c #6CB4FE",
"X  c #6FB6FE",
"o  c #7CBDFE",
"O  c #7FBEFE",
"+  c #7EBEFE",
"@  c #6BB4FE",
"#  c #7BBCFE",
"$  c #DEEEFF",
"%  c #EEF7FF",
"&  c #EDF6FF",
"*  c #8EC6FE",
"=  c #F1F8FF",
"-  c white",
";  c #7EBDFE",
":  c #FDFEFF",
">  c #F0F7FF",
",  c #EFF7FF",
"<  c #8DC5FE",
"1  c #7DBDFE",
"2  c #7ABCFE",
"3  c #DFEFFF",
"4  c #6DB6FF",
"5  c #6EB6FF",
"6  c #F2F8FF",
"7  c #6CB4FC",
"8  c #66ABF1",
"9  c #65AAEF",
"0  c #65AAF0",
"q  c #7DBEFF",
"w  c #65ABF2",
"e  c #3A6CA1",
"r  c #326193",
"t  c #326294",
"y  c #66ACF2",
"u  c #EDF5FD",
"i  c #78B5F2",
"p  c #5EA0E4",
"a  c #396999",
"s  c #33608D",
"d  c #33618E",
"f  c #5FA1E4",
"g  c #E8EDF3",
"h  c #4B74A1",
"j  c #386899",
"k  c #659BBE",
"l  c #6DA3C4",
"z  c #6CA3C4",
"x  c #6DA4C4",
"c  c #669BBE",
"v  c #396A9A",
"b  c #326194",
"n  c #FCFDFD",
"m  c #EAEEF3",
"M  c #D0DAE4",
"N  c #487199",
"B  c #3A6994",
"V  c #6EA4C5",
"C  c #76AECD",
"Z  c #74ADCC",
"A  c #69A6C6",
"S  c #67A4C6",
"D  c #67A5C6",
"F  c #68A5C6",
"G  c #619CBF",
"H  c #5A7CA1",
"J  c #477099",
"K  c #679CBE",
"L  c #6DA4C5",
"P  c #74ACCB",
"I  c #75ADCC",
"U  c #77AECD",
"Y  c #69A5C6",
"T  c #1A729F",
"R  c #0C6998",
"E  c #0D6A99",
"W  c #19719E",
"Q  c #6EA4C4",
"!  c #39699A",
"~  c #ECF5FD",
"^  c #396894",
"/  c #73ACCB",
"(  c #5C9DC0",
")  c #18719E",
"_  c #6AA6C7",
"`  c #3B6A95",
"'  c #80BFFF",
"]  c #76AECC",
"[  c #17709D",
"{  c #68A4C5",
"}  c #67A4C5",
"|  c #6CA3C3",
" . c #396BA0",
".. c #7CBCFE",
"X. c #6AB3FC",
"o. c #3B6994",
"O. c #70B7FF",
"+. c #73AAC9",
"@. c #689AB6",
"#. c #699BB6",
"$. c #1A262D",
"%. c #76AECE",
"&. c #6798B3",
"*. c #0C1216",
"=. c #3B6995",
"-. c #75ACCC",
";. c #6EA5C5",
":. c #60A2E5",
">. c #66AAF0",
",. c #67ACF2",
"<. c #6DB5FF",
"1. c #65AAF1",
"2. c #33618D",
"3. c #396CA1",
"4. c #66ABF2",
"5. c #6CB5FE",
"6. c #66ACF3",
"7. c #5FA1E5",
"8. c #3B6A96",
"9. c #33608E",
"0. c #5FA2E6",
"q. c #6CB4FD",
"w. c #72AFEB",
"e. c #72B0EC",
"r. c #69A5DF",
"t. c #336192",
"y. c #326091",
"u. c #73B1ED",
"i. c #69A5E0",
"p. c #669ABC",
"a. c #3D6589",
"s. c #375B81",
"d. c #6AA6E1",
"f. c #6CA7E0",
"g. c #3E658D",
"h. c #6BA6DF",
"j. c #72B1ED",
"k. c #72AFEC",
"l. c #8E8C77",
"z. c #8F8C76",
"x. c #828578",
"c. c #365C84",
"v. c #32618F",
"b. c #365D84",
"n. c #33618F",
"m. c #7D7D6D",
"M. c #878168",
"N. c #828579",
"B. c #8E8B75",
"V. c #87826A",
"C. c #8D8A75",
"Z. c #938663",
"A. c #948663",
"S. c #888167",
"D. c #42617E",
"F. c #3D658A",
"G. c #878067",
"H. c #375C81",
"J. c #958763",
"K. c #948664",
"L. c #938664",
"P. c #918564",
"I. c #898167",
"U. c #7C7D6D",
"Y. c #868068",
"T. c #365C82",
"R. c #3A6A96",
"E. c #3D648A",
"W. c #948764",
"Q. c #888168",
"!. c #42617D",
/* pixels */
"                                                                                                    . . . . . . . .             ",
"                                                                                                  X o O + + + + O o X           ",
"                                                                                                @ # $ % & & & & % $ # @ . .     ",
"                                                                                              X # * = - - - - - - = * ; O o X   ",
"                                                                                            @ # $ = : - - - - - - : > & % $ o . ",
"                                                                                          X # * = - - - - - - - - - - - - % O . ",
"                                                                                        . o $ = : - - - - - - - - - - - - & + . ",
"                                                                                        . O % - - - - - - - - - - - - - - & + . ",
"                                                                                        . O & - - - - - - - - - - - - - - % O . ",
"                                                                                        . O & - - - - - - - - - - - - : = $ o . ",
"                                                                                        . O % - - - - - - - - - - - - > * # X   ",
"                                                                                        . o $ = : - - - - : , , : - - & ; @     ",
"            . .         . . . .                                                           X # * = - - - - = < < = - - % O .     ",
"          X 1 1 X     X o O O o X                                                           @ # $ % & & % $ 2 2 $ % % $ o .     ",
"        @ # 3 3 # @ @ # $ % % $ # @     4 5 5 5 5 5 5 5 5 5 5 4                               X o O O O O o X X o O O o X       ",
"      X # * 6 6 * ; ; * = - - = * # X 7 8 9 0 0 0 0 0 0 0 0 9 8 7                               . . . . . .     . . . .         ",
"    @ # $ = : : > & & > : - - : = $ q w e r t t t t t t t t r e y 5 5 5 5 4                                                     ",
"  X # * = - - - - - - - - - - - - u i p a s d d d d d d d d s a f 0 0 0 9 8 7                                                   ",
". o $ = : - - - - - - - - - - - - g h j k l z z z z l l l l x c v b t t r e y 5 5 5 5 5 5 5 5 4                                 ",
". O % - - - - - - - - - - - - n m M N B V C C C C Z A S D D F G B s d d s a f 0 0 0 0 0 0 0 9 8 7                               ",
". O % - - - - - - - - - - - - m H J K L P I I I U Y T R E E R W G Q z z l k ! b t t t t t t r e y 5                             ",
". o $ = : - - - - : > & & ~ g M J ^ L C I I I / Y ( ) R E E R ) ( _ Z C C V ` s d d d d d d s a f y 7                           ",
"  X # * = - - - - = * ; ' i h N K L P I I I ] F W [ ( { } } { ( [ W Y U I P L | z z z z z z l k a  .y 5                         ",
"    @ # $ % & & % $ ..X.w p j B L C I I I I ] F W W Y U ] ] U Y W [ ( Y / I ] C C C C C C C C V o.a f y 7                       ",
"      X o O O O O o O.8 e a k V P I I I I I I / F F / I I I I / Y ( ) T Y ] I I I I I I I I I P V k a e 8 4                     ",
"        . . . . . . 4 9 r s l C I I I I I I I I ] ] I I I I I I U { R R } ] I I I I I I I I I I C l s r 9 5                     ",
"                    5 0 b s | C I I I I I I I I I I I I I I I I ] } E E } ] I I I I I I I I I I C | s b 0 5                     ",
"                  7 y f ! ` L ] I I I I I I I I I I I I I I I I ] } E E } ] I I I I I I I I I I ] L ` ! f y 7                   ",
"                4 8 e a k V P I I I I I I I I I I I I I I I I I ] } E E } ] I I I I I I I I I I I P V k a e 8 4                 ",
"                5 9 r s l C I I I I I I I I I I I I I I I I I I ] } E E } ] I I I I I I I I I I I I C l s r 9 5                 ",
"                5 0 b s | C I I I I I I C C I I I I I I I I I I ] } E E } ] I I I I I I I I I I I I C z d t 0 5                 ",
"              7 y f ! ` L ] I I I I I +.@.@.+.I I I I I I I I I ] } E E } ] I I I I I I I I I I I I C z d t 0 5                 ",
"            4 8 e a k V P I I I I I C #.$.$.#.C I I I I I I I I ] } E E } ] I I I I I I I I I I I I C z d t 0 5                 ",
"            5 9 r s l C I I I I I I %.&.*.*.&.%.I I I I I I I I ] } E E } ] I I I I I I I I I I I I C z d t 0 5                 ",
"            5 0 t d z C I I I I I I %.&.*.*.&.%.I I I I I I I I ] } E E } ] I I I I I I I I I I I I C | s b 0 5                 ",
"            5 0 t d z C I I I I I I C #.$.$.#.C I I I I I I I I ] } E E } ] I I I I I I I I I I I I ] L ` ! f y 7               ",
"            5 0 t d z C I I ] ] I I I +.@.@.+.I I I I I I I I I U { R R } ] I I I I I I I I I I I I I P V k a e 8 4             ",
"            5 0 t d z C I P L L P I I I C C I I I I I I I I I / Y ( ) T Y ] I I I I I I I I I I I I I I C l s r 9 5             ",
"            5 0 t d z C C V =.=.V C I I I I ] ] I I I I I I U Y W [ ( Y / I I I I I I I I I I I I I I I C z d t 0 5             ",
"            5 0 t d z -.V k a a k V P I I / F F / I I I I / Y ( [ W Y U I I I I I I I I I I I I I I I I C z d t 0 5             ",
"            5 0 t d l ;.` ! :.:.! ` L ] ] F W W Y U ] ] U Y W [ ( Y / I I I I I I I I I I I I I I I ] ] C z d t 0 5             ",
"            5 0 t d l l s b 8 8 b s | C ] F W [ ( { } } { ( [ W Y U I I I I I I I I I I I I I I I P L L -.z d t 0 5             ",
"            5 0 t d l l d t >.0 r s l C I / Y ( ) R E E R ) ( Y / I I I I I I I I I I I I I I I ] L ` ` ;.l d t 0 5             ",
"            5 0 t d l l d t 0 ,.e a k V P I U Y T R E E R T Y U I I I I I I I I I I I I I I I I C | s s l l d t 0 5             ",
"            5 0 t d l l s b 0   y f a o.V C I / Y } } } } Y / I ] C C ] I I I I I I I I I I I I C l s s x x s r 9 5             ",
"            5 0 t d l ;.` ! f y   y  .a k V P I ] ] ] ] ] ] I P L | | L P I I I I I I I I I I P V k v v c c a e 8 4             ",
"<.<.<.<.<.<.4 1.t 2.z -.V k a 3.4.5.6.7.v ` L ] I I I I I I C V 8.9.9.8.V C I I I I I I I I ] L ` v 0.0.! ! 7.6.q.<.<.<.<.<.<.<.",
"w.w.w.w.w.w.e.r.t.d z C C l s y.r.e.u.i.y.s | C I I I I I P V p.a.s.s.a.p.V P I I I I I I I C | s y.d.f.g.g.h.j.k.w.w.w.w.w.w.w.",
"l.l.l.l.l.l.z.x.c.v.z C C z v.c.x.z.z.x.b.n.z C I I I I ] L 8.a.m.M.M.m.a.8.L ] I I I I I I C z v.c.N.B.V.V.C.l.l.l.l.l.l.l.l.l.",
"Z.Z.Z.Z.Z.Z.A.S.D.F.p.z z p.F.D.S.A.A.G.H.n.z C I I I I C | 9.s.M.J.J.M.s.9.| C I I I I I P V p.F.D.S.A.K.K.Z.Z.Z.Z.Z.Z.Z.Z.Z.Z.",
"L.L.L.L.L.L.L.P.I.U.F.v.v.F.U.I.P.L.K.Y.T.v.z C C C C C C z v.T.Y.K.K.Y.T.v.z C C C C C C V R.E.U.I.P.L.L.L.L.L.L.L.L.L.L.L.L.L.",
"L.L.L.L.L.L.L.L.W.I.D.T.T.D.I.W.L.L.K.Q.D.F.p.z z z z z z p.F.D.Q.K.K.Q.D.F.p.z z z z z z p.E.!.I.W.L.L.L.L.L.L.L.L.L.L.L.L.L.L.",
"L.L.L.L.L.L.L.L.L.P.Q.Y.Y.Q.P.L.L.L.L.P.I.U.F.v.n.n.n.n.v.F.U.I.P.L.L.P.I.U.F.v.n.n.n.n.v.F.U.I.P.L.L.L.L.L.L.L.L.L.L.L.L.L.L.L.",
"L.L.L.L.L.L.L.L.L.L.K.K.K.K.L.L.L.L.L.L.W.I.D.T.H.H.H.H.T.D.I.W.L.L.L.L.W.I.D.T.H.H.H.H.T.D.I.W.L.L.L.L.L.L.L.L.L.L.L.L.L.L.L.L.",
"L.L.L.L.L.L.L.L.L.L.L.L.L.L.L.L.L.L.L.L.L.P.Q.Y.Y.Y.Y.Y.Y.Q.P.L.L.L.L.L.L.P.Q.Y.Y.Y.Y.Y.Y.Q.P.L.L.L.L.L.L.L.L.L.L.L.L.L.L.L.L.L.",
"L.L.L.L.L.L.L.L.L.L.L.L.L.L.L.L.L.L.L.L.L.L.K.K.K.K.K.K.K.K.L.L.L.L.L.L.L.L.K.K.K.K.K.K.K.K.L.L.L.L.L.L.L.L.L.L.L.L.L.L.L.L.L.L.",
"L.L.L.L.L.L.L.L.L.L.L.L.L.L.L.L.L.L.L.L.L.L.L.L.L.L.L.L.L.L.L.L.L.L.L.L.L.L.L.L.L.L.L.L.L.L.L.L.L.L.L.L.L.L.L.L.L.L.L.L.L.L.L.L.",
"L.L.L.L.L.L.L.L.L.L.L.L.L.L.L.L.L.L.L.L.L.L.L.L.L.L.L.L.L.L.L.L.L.L.L.L.L.L.L.L.L.L.L.L.L.L.L.L.L.L.L.L.L.L.L.L.L.L.L.L.L.L.L.L.",
"L.L.L.L.L.L.L.L.L.L.L.L.L.L.L.L.L.L.L.L.L.L.L.L.L.L.L.L.L.L.L.L.L.L.L.L.L.L.L.L.L.L.L.L.L.L.L.L.L.L.L.L.L.L.L.L.L.L.L.L.L.L.L.L.",
"L.L.L.L.L.L.L.L.L.L.L.L.L.L.L.L.L.L.L.L.L.L.L.L.L.L.L.L.L.L.L.L.L.L.L.L.L.L.L.L.L.L.L.L.L.L.L.L.L.L.L.L.L.L.L.L.L.L.L.L.L.L.L.L.",
"L.L.L.L.L.L.L.L.L.L.L.L.L.L.L.L.L.L.L.L.L.L.L.L.L.L.L.L.L.L.L.L.L.L.L.L.L.L.L.L.L.L.L.L.L.L.L.L.L.L.L.L.L.L.L.L.L.L.L.L.L.L.L.L.",
"L.L.L.L.L.L.L.L.L.L.L.L.L.L.L.L.L.L.L.L.L.L.L.L.L.L.L.L.L.L.L.L.L.L.L.L.L.L.L.L.L.L.L.L.L.L.L.L.L.L.L.L.L.L.L.L.L.L.L.L.L.L.L.L.",
"L.L.L.L.L.L.L.L.L.L.L.L.L.L.L.L.L.L.L.L.L.L.L.L.L.L.L.L.L.L.L.L.L.L.L.L.L.L.L.L.L.L.L.L.L.L.L.L.L.L.L.L.L.L.L.L.L.L.L.L.L.L.L.L.",
"L.L.L.L.L.L.L.L.L.L.L.L.L.L.L.L.L.L.L.L.L.L.L.L.L.L.L.L.L.L.L.L.L.L.L.L.L.L.L.L.L.L.L.L.L.L.L.L.L.L.L.L.L.L.L.L.L.L.L.L.L.L.L.L."
};
